<svg width="877" height="393" viewBox="0 0 877 393" fill="none" xmlns="http://www.w3.org/2000/svg">
<mask id="path-1-inside-1" fill="white">
<path fill-rule="evenodd" clip-rule="evenodd" d="M437.701 249.253L18.1349 387.765C11.5981 389.923 4.8865 384.985 5.00146 378.102L11.0688 14.8414C11.1838 7.95856 18.0566 3.24737 24.5177 5.62246L437.701 157.509L850.884 5.62246C857.345 3.24737 864.218 7.95856 864.333 14.8414L870.401 378.102C870.516 384.985 863.804 389.923 857.267 387.765L437.701 249.253Z"/>
</mask>
<path fill-rule="evenodd" clip-rule="evenodd" d="M437.701 249.253L18.1349 387.765C11.5981 389.923 4.8865 384.985 5.00146 378.102L11.0688 14.8414C11.1838 7.95856 18.0566 3.24737 24.5177 5.62246L437.701 157.509L850.884 5.62246C857.345 3.24737 864.218 7.95856 864.333 14.8414L870.401 378.102C870.516 384.985 863.804 389.923 857.267 387.765L437.701 249.253Z" fill="#7293C5"/>
<path d="M437.701 249.253L438.798 245.93L437.701 245.567L436.604 245.93L437.701 249.253ZM18.1349 387.765L19.2321 391.088L19.2321 391.088L18.1349 387.765ZM5.00146 378.102L1.50194 378.043L5.00146 378.102ZM11.0688 14.8414L14.5683 14.8999L11.0688 14.8414ZM24.5177 5.62246L23.3101 8.90753L23.3101 8.90753L24.5177 5.62246ZM437.701 157.509L436.493 160.794L437.701 161.238L438.909 160.794L437.701 157.509ZM850.884 5.62246L849.677 2.33738L849.677 2.33738L850.884 5.62246ZM864.333 14.8414L867.833 14.783L867.833 14.7829L864.333 14.8414ZM870.401 378.102L866.901 378.16L866.901 378.16L870.401 378.102ZM857.267 387.765L856.17 391.088L856.17 391.088L857.267 387.765ZM436.604 245.93L17.0377 384.441L19.2321 391.088L438.798 252.577L436.604 245.93ZM17.0377 384.441C12.7888 385.844 8.42624 382.634 8.50097 378.16L1.50194 378.043C1.34675 387.335 10.4075 394.002 19.2321 391.088L17.0377 384.441ZM8.50097 378.16L14.5683 14.8999L7.5693 14.7829L1.50194 378.043L8.50097 378.16ZM14.5683 14.8999C14.6431 10.426 19.1104 7.36373 23.3101 8.90753L25.7253 2.33738C17.0028 -0.868995 7.7245 5.49112 7.5693 14.7829L14.5683 14.8999ZM23.3101 8.90753L436.493 160.794L438.909 154.223L25.7253 2.33738L23.3101 8.90753ZM849.677 2.33738L436.493 154.223L438.909 160.794L852.092 8.90753L849.677 2.33738ZM867.833 14.7829C867.677 5.49112 858.399 -0.868993 849.677 2.33738L852.092 8.90754C856.292 7.36372 860.759 10.426 860.834 14.8999L867.833 14.7829ZM873.9 378.043L867.833 14.783L860.834 14.8999L866.901 378.16L873.9 378.043ZM856.17 391.088C864.995 394.002 874.055 387.335 873.9 378.043L866.901 378.16C866.976 382.634 862.613 385.844 858.364 384.441L856.17 391.088ZM436.604 252.577L856.17 391.088L858.364 384.441L438.798 245.93L436.604 252.577Z" fill="#2C47A4" mask="url(#path-1-inside-1)"/>
<path fill-rule="evenodd" clip-rule="evenodd" d="M153.485 219.95C153.485 221.115 154.478 222.034 155.641 221.943L450.894 198.932C453.344 198.741 453.358 195.155 450.91 194.945L155.656 169.648C154.488 169.548 153.485 170.469 153.485 171.64V219.95Z" fill="#496B9E" fill-opacity="0.6"/>
<path fill-rule="evenodd" clip-rule="evenodd" d="M722.989 219.95C722.989 221.115 721.996 222.034 720.834 221.943L425.58 198.932C423.13 198.741 423.116 195.155 425.565 194.945L720.818 169.648C721.986 169.548 722.989 170.469 722.989 171.64V219.95Z" fill="#496B9E" fill-opacity="0.6"/>
<rect opacity="0.5" x="315.004" y="116.751" width="247" height="160" rx="10" fill="#496B9E"/>
<rect x="329.004" y="104.751" width="219" height="186" rx="9" fill="#7293C5" stroke="#2C47A4" stroke-width="2"/>
</svg>
