<svg width="143" height="143" viewBox="0 0 143 143" fill="none" xmlns="http://www.w3.org/2000/svg">
<mask id="path-1-inside-1" fill="white">
<path fill-rule="evenodd" clip-rule="evenodd" d="M71.8041 68.4689C70.8821 65.9144 68.9049 63.6944 65.8595 62.5749L17.0226 44.6225C10.5615 42.2474 3.68871 46.9585 3.57375 53.8414L3.00146 88.1053C2.8865 94.9882 9.59814 99.9262 16.1349 97.7682L65.5442 81.4567C68.7552 80.3967 70.8466 78.1032 71.8041 75.4434C72.7616 78.1032 74.8531 80.3967 78.064 81.4567L127.473 97.7682C134.01 99.9262 140.722 94.9882 140.607 88.1053L140.034 53.8414C139.919 46.9585 133.047 42.2474 126.586 44.6225L77.7487 62.5749C74.7033 63.6944 72.7261 65.9144 71.8041 68.4689Z"/>
</mask>
<path fill-rule="evenodd" clip-rule="evenodd" d="M71.8041 68.4689C70.8821 65.9144 68.9049 63.6944 65.8595 62.5749L17.0226 44.6225C10.5615 42.2474 3.68871 46.9585 3.57375 53.8414L3.00146 88.1053C2.8865 94.9882 9.59814 99.9262 16.1349 97.7682L65.5442 81.4567C68.7552 80.3967 70.8466 78.1032 71.8041 75.4434C72.7616 78.1032 74.8531 80.3967 78.064 81.4567L127.473 97.7682C134.01 99.9262 140.722 94.9882 140.607 88.1053L140.034 53.8414C139.919 46.9585 133.047 42.2474 126.586 44.6225L77.7487 62.5749C74.7033 63.6944 72.7261 65.9144 71.8041 68.4689Z" fill="#7293C5"/>
<path d="M65.8595 62.5749L64.6519 65.86L64.6519 65.86L65.8595 62.5749ZM71.8041 68.4689L68.512 69.6571L71.8041 78.7785L75.0962 69.6571L71.8041 68.4689ZM17.0226 44.6225L18.2302 41.3374L18.2302 41.3374L17.0226 44.6225ZM3.57375 53.8414L7.07326 53.8998L3.57375 53.8414ZM3.00146 88.1053L6.50097 88.1638L3.00146 88.1053ZM16.1349 97.7682L15.0377 94.4447L15.0377 94.4447L16.1349 97.7682ZM65.5442 81.4567L64.4469 78.1332L64.4469 78.1332L65.5442 81.4567ZM71.8041 75.4434L75.0972 74.2579L71.8041 65.1099L68.511 74.2579L71.8041 75.4434ZM78.064 81.4567L79.1613 78.1332L79.1613 78.1332L78.064 81.4567ZM127.473 97.7682L126.376 101.092L126.376 101.092L127.473 97.7682ZM140.607 88.1053L144.106 88.0469L144.106 88.0469L140.607 88.1053ZM140.034 53.8414L136.535 53.8998L136.535 53.8998L140.034 53.8414ZM126.586 44.6225L125.378 41.3374L125.378 41.3374L126.586 44.6225ZM77.7487 62.5749L76.5411 59.2898L76.5411 59.2898L77.7487 62.5749ZM64.6519 65.86C66.6836 66.6068 67.925 68.0309 68.512 69.6571L75.0962 67.2807C73.8392 63.7978 71.1262 60.7819 67.0671 59.2898L64.6519 65.86ZM15.815 47.9075L64.6519 65.86L67.0671 59.2898L18.2302 41.3374L15.815 47.9075ZM7.07326 53.8998C7.14799 49.426 11.6153 46.3637 15.815 47.9075L18.2302 41.3374C9.50775 38.131 0.229435 44.4911 0.074238 53.7829L7.07326 53.8998ZM6.50097 88.1638L7.07326 53.8998L0.074238 53.7829L-0.498056 88.0469L6.50097 88.1638ZM15.0377 94.4447C10.7888 95.8474 6.42624 92.6376 6.50097 88.1638L-0.498056 88.0469C-0.653253 97.3387 8.40747 104.005 17.2322 101.092L15.0377 94.4447ZM64.4469 78.1332L15.0377 94.4447L17.2322 101.092L66.6414 84.7803L64.4469 78.1332ZM68.511 74.2579C67.899 75.958 66.5843 77.4276 64.4469 78.1332L66.6414 84.7803C70.926 83.3658 73.7943 80.2483 75.0972 76.6288L68.511 74.2579ZM68.511 76.6288C69.8139 80.2483 72.6822 83.3658 76.9668 84.7803L79.1613 78.1332C77.0239 77.4276 75.7092 75.958 75.0972 74.2579L68.511 76.6288ZM76.9668 84.7803L126.376 101.092L128.57 94.4447L79.1613 78.1332L76.9668 84.7803ZM126.376 101.092C135.201 104.005 144.261 97.3387 144.106 88.0469L137.107 88.1638C137.182 92.6376 132.819 95.8474 128.57 94.4447L126.376 101.092ZM144.106 88.0469L143.534 53.7829L136.535 53.8998L137.107 88.1638L144.106 88.0469ZM143.534 53.7829C143.379 44.4911 134.1 38.131 125.378 41.3374L127.793 47.9075C131.993 46.3637 136.46 49.426 136.535 53.8998L143.534 53.7829ZM125.378 41.3374L76.5411 59.2898L78.9563 65.86L127.793 47.9075L125.378 41.3374ZM76.5411 59.2898C72.482 60.7819 69.769 63.7978 68.512 67.2807L75.0962 69.6571C75.6832 68.0309 76.9247 66.6068 78.9563 65.86L76.5411 59.2898Z" fill="#2C47A4" mask="url(#path-1-inside-1)"/>
<path fill-rule="evenodd" clip-rule="evenodd" d="M26.4818 72.9001C26.4818 74.0659 27.4749 74.9846 28.6372 74.894L53.4212 72.9624C55.8712 72.7714 55.885 69.1855 53.4365 68.9757L28.6525 66.8522C27.4848 66.7522 26.4818 67.673 26.4818 68.8449V72.9001Z" fill="#496B9E" fill-opacity="0.6"/>
<path fill-rule="evenodd" clip-rule="evenodd" d="M117.297 72.9001C117.297 74.0659 116.304 74.9846 115.142 74.894L90.3581 72.9624C87.9081 72.7714 87.8943 69.1855 90.3427 68.9757L115.127 66.8522C116.294 66.7522 117.297 67.673 117.297 68.8449V72.9001Z" fill="#496B9E" fill-opacity="0.6"/>
<rect opacity="0.5" x="52.2383" y="58.2607" width="39.3878" height="25.5143" rx="10" fill="#496B9E"/>
<rect x="55.3113" y="57.1877" width="33.2417" height="27.9793" rx="9" fill="#7293C5" stroke="#2C47A4" stroke-width="2"/>
</svg>
