<svg width="877" height="877" viewBox="0 0 877 877" fill="none" xmlns="http://www.w3.org/2000/svg">
<mask id="path-1-inside-1" fill="white">
<path fill-rule="evenodd" clip-rule="evenodd" d="M438.701 491.253L19.1349 629.765C12.5981 631.923 5.8865 626.985 6.00146 620.102L12.0688 256.841C12.1838 249.959 19.0566 245.247 25.5177 247.622L438.701 399.509L851.884 247.622C858.345 245.247 865.218 249.959 865.333 256.841L871.401 620.102C871.516 626.985 864.804 631.923 858.267 629.765L438.701 491.253Z"/>
</mask>
<path fill-rule="evenodd" clip-rule="evenodd" d="M438.701 491.253L19.1349 629.765C12.5981 631.923 5.8865 626.985 6.00146 620.102L12.0688 256.841C12.1838 249.959 19.0566 245.247 25.5177 247.622L438.701 399.509L851.884 247.622C858.345 245.247 865.218 249.959 865.333 256.841L871.401 620.102C871.516 626.985 864.804 631.923 858.267 629.765L438.701 491.253Z" fill="#7293C5"/>
<path d="M438.701 491.253L439.798 487.93L438.701 487.567L437.604 487.93L438.701 491.253ZM19.1349 629.765L20.2321 633.088L20.2321 633.088L19.1349 629.765ZM6.00146 620.102L2.50194 620.043L6.00146 620.102ZM12.0688 256.841L15.5683 256.9L12.0688 256.841ZM25.5177 247.622L24.3101 250.908L24.3101 250.908L25.5177 247.622ZM438.701 399.509L437.493 402.794L438.701 403.238L439.909 402.794L438.701 399.509ZM851.884 247.622L850.677 244.337L850.677 244.337L851.884 247.622ZM865.333 256.841L868.833 256.783L868.833 256.783L865.333 256.841ZM871.401 620.102L867.901 620.16L867.901 620.16L871.401 620.102ZM858.267 629.765L857.17 633.088L857.17 633.088L858.267 629.765ZM437.604 487.93L18.0377 626.441L20.2321 633.088L439.798 494.577L437.604 487.93ZM18.0377 626.441C13.7888 627.844 9.42624 624.634 9.50097 620.16L2.50194 620.043C2.34675 629.335 11.4075 636.002 20.2321 633.088L18.0377 626.441ZM9.50097 620.16L15.5683 256.9L8.5693 256.783L2.50194 620.043L9.50097 620.16ZM15.5683 256.9C15.6431 252.426 20.1104 249.364 24.3101 250.908L26.7253 244.337C18.0028 241.131 8.7245 247.491 8.5693 256.783L15.5683 256.9ZM24.3101 250.908L437.493 402.794L439.909 396.223L26.7253 244.337L24.3101 250.908ZM850.677 244.337L437.493 396.223L439.909 402.794L853.092 250.908L850.677 244.337ZM868.833 256.783C868.677 247.491 859.399 241.131 850.677 244.337L853.092 250.908C857.292 249.364 861.759 252.426 861.834 256.9L868.833 256.783ZM874.9 620.043L868.833 256.783L861.834 256.9L867.901 620.16L874.9 620.043ZM857.17 633.088C865.995 636.002 875.055 629.335 874.9 620.043L867.901 620.16C867.976 624.634 863.613 627.844 859.364 626.441L857.17 633.088ZM437.604 494.577L857.17 633.088L859.364 626.441L439.798 487.93L437.604 494.577Z" fill="#2C47A4" mask="url(#path-1-inside-1)"/>
<path fill-rule="evenodd" clip-rule="evenodd" d="M154.485 461.95C154.485 463.115 155.478 464.034 156.641 463.943L451.894 440.932C454.344 440.741 454.358 437.155 451.91 436.945L156.656 411.648C155.488 411.548 154.485 412.469 154.485 413.64V461.95Z" fill="#496B9E" fill-opacity="0.6"/>
<path fill-rule="evenodd" clip-rule="evenodd" d="M723.989 461.95C723.989 463.115 722.996 464.034 721.834 463.943L426.58 440.932C424.13 440.741 424.116 437.155 426.565 436.945L721.818 411.648C722.986 411.548 723.989 412.469 723.989 413.64V461.95Z" fill="#496B9E" fill-opacity="0.6"/>
<rect opacity="0.5" x="316.004" y="358.751" width="247" height="160" rx="10" fill="#496B9E"/>
<rect x="330.004" y="346.751" width="219" height="186" rx="9" fill="#7293C5" stroke="#2C47A4" stroke-width="2"/>
</svg>
