<svg width="560" height="244" viewBox="0 0 560 244" fill="none" xmlns="http://www.w3.org/2000/svg">
<mask id="path-1-inside-1" fill="white">
<path fill-rule="evenodd" clip-rule="evenodd" d="M347.117 169.158C345.298 171.652 342.354 173.273 339.031 173.273H224.866C221.428 173.273 218.396 171.539 216.596 168.898L31.9955 229.7C25.46 231.853 18.754 226.916 18.8691 220.036L22.367 11.0911C22.4822 4.21127 29.3497 -0.49997 35.8096 1.86924L214.797 67.5145C214.883 67.4956 214.968 67.4778 215.054 67.4611C215.958 62.8677 220.007 59.4031 224.866 59.4031H339.031C343.82 59.4031 347.823 62.7699 348.802 67.2658L527.112 1.86924C533.572 -0.49997 540.439 4.21127 540.554 11.0911L544.052 220.036C544.167 226.916 537.461 231.853 530.926 229.7L347.117 169.158Z"/>
</mask>
<path fill-rule="evenodd" clip-rule="evenodd" d="M347.117 169.158C345.298 171.652 342.354 173.273 339.031 173.273H224.866C221.428 173.273 218.396 171.539 216.596 168.898L31.9955 229.7C25.46 231.853 18.754 226.916 18.8691 220.036L22.367 11.0911C22.4822 4.21127 29.3497 -0.49997 35.8096 1.86924L214.797 67.5145C214.883 67.4956 214.968 67.4778 215.054 67.4611C215.958 62.8677 220.007 59.4031 224.866 59.4031H339.031C343.82 59.4031 347.823 62.7699 348.802 67.2658L527.112 1.86924C533.572 -0.49997 540.439 4.21127 540.554 11.0911L544.052 220.036C544.167 226.916 537.461 231.853 530.926 229.7L347.117 169.158Z" fill="#E5D759"/>
<path d="M347.117 169.158L347.742 167.259L346.359 166.803L345.501 167.98L347.117 169.158ZM216.596 168.898L218.249 167.771L217.401 166.527L215.97 166.998L216.596 168.898ZM31.9955 229.7L32.6212 231.6L32.6212 231.6L31.9955 229.7ZM18.8691 220.036L16.8694 220.002L18.8691 220.036ZM22.367 11.0911L20.3673 11.0576L22.367 11.0911ZM35.8096 1.86924L35.1209 3.74694L35.1209 3.74694L35.8096 1.86924ZM214.797 67.5145L214.109 69.3922L214.659 69.5939L215.231 69.467L214.797 67.5145ZM215.054 67.4611L215.436 69.4243L216.757 69.1675L217.016 67.8473L215.054 67.4611ZM348.802 67.2658L346.848 67.6913L347.336 69.9337L349.491 69.1435L348.802 67.2658ZM527.112 1.86924L527.8 3.74694L527.8 3.74694L527.112 1.86924ZM540.554 11.0911L538.555 11.1246L538.555 11.1246L540.554 11.0911ZM544.052 220.036L546.052 220.002L546.052 220.002L544.052 220.036ZM530.926 229.7L530.3 231.6L530.3 231.6L530.926 229.7ZM345.501 167.98C344.042 169.98 341.688 171.273 339.031 171.273V175.273C343.02 175.273 346.554 173.325 348.733 170.337L345.501 167.98ZM339.031 171.273H224.866V175.273H339.031V171.273ZM224.866 171.273C222.118 171.273 219.692 169.889 218.249 167.771L214.943 170.024C217.1 173.189 220.739 175.273 224.866 175.273V171.273ZM215.97 166.998L31.3698 227.801L32.6212 231.6L217.222 170.797L215.97 166.998ZM31.3698 227.801C26.1413 229.523 20.7767 225.573 20.8689 220.069L16.8694 220.002C16.7312 228.258 24.7786 234.183 32.6212 231.6L31.3698 227.801ZM20.8689 220.069L24.3668 11.1246L20.3673 11.0576L16.8694 220.002L20.8689 220.069ZM24.3668 11.1246C24.4589 5.62059 29.9531 1.85158 35.1209 3.74694L36.4983 -0.00845585C28.7464 -2.85153 20.5055 2.80196 20.3673 11.0576L24.3668 11.1246ZM35.1209 3.74694L214.109 69.3922L215.486 65.6368L36.4983 -0.00845592L35.1209 3.74694ZM215.231 69.467C215.299 69.4519 215.367 69.4377 215.436 69.4243L214.672 65.4978C214.569 65.5179 214.467 65.5393 214.364 65.562L215.231 69.467ZM217.016 67.8473C217.739 64.1736 220.981 61.4031 224.866 61.4031V57.4031C219.033 57.4031 214.177 61.5619 213.092 67.0749L217.016 67.8473ZM224.866 61.4031H339.031V57.4031H224.866V61.4031ZM339.031 61.4031C342.86 61.4031 346.065 64.0951 346.848 67.6913L350.756 66.8403C349.581 61.4447 344.78 57.4031 339.031 57.4031V61.4031ZM349.491 69.1435L527.8 3.74694L526.423 -0.00845616L348.113 65.3881L349.491 69.1435ZM527.8 3.74694C532.968 1.85159 538.462 5.62058 538.555 11.1246L542.554 11.0576C542.416 2.80196 534.175 -2.85153 526.423 -0.00845391L527.8 3.74694ZM538.555 11.1246L542.052 220.069L546.052 220.002L542.554 11.0576L538.555 11.1246ZM542.052 220.069C542.145 225.573 536.78 229.523 531.551 227.801L530.3 231.6C538.143 234.183 546.19 228.258 546.052 220.002L542.052 220.069ZM531.551 227.801L347.742 167.259L346.491 171.058L530.3 231.6L531.551 227.801Z" fill="#B4A840" mask="url(#path-1-inside-1)"/>
<mask id="path-3-inside-2" fill="white">
<path fill-rule="evenodd" clip-rule="evenodd" d="M346.129 176.435C344.314 178.953 341.355 180.592 338.013 180.592H222.284C218.827 180.592 215.779 178.838 213.983 176.17L27.1371 237.895C20.5999 240.055 13.8866 235.116 14.0015 228.233L17.5465 15.8413C17.6614 8.95757 24.5358 4.2464 30.9973 6.62323L212.176 73.2692C212.268 73.2492 212.36 73.2306 212.453 73.2132C213.317 68.5694 217.39 65.0536 222.284 65.0536H338.013C342.839 65.0536 346.868 68.4734 347.806 73.0223L528.313 6.62323C534.775 4.2464 541.649 8.95757 541.764 15.8413L545.309 228.233C545.424 235.116 538.711 240.055 532.174 237.895L346.129 176.435ZM71.4559 149.72C68.8639 149.72 66.4879 149.072 64.3279 147.776C62.2159 146.432 60.5119 144.68 59.2159 142.52C57.9679 140.312 57.3439 137.888 57.3439 135.248V131.936C57.3439 131.696 57.4639 131.576 57.7039 131.576H65.7679C65.9599 131.576 66.0559 131.696 66.0559 131.936V135.248C66.0559 136.832 66.5839 138.2 67.6399 139.352C68.6959 140.456 69.9679 141.008 71.4559 141.008C72.9439 141.008 74.2159 140.432 75.2719 139.28C76.3279 138.128 76.8559 136.784 76.8559 135.248C76.8559 133.472 75.7039 131.936 73.3999 130.64C72.6319 130.208 71.4319 129.536 69.7999 128.624C68.1679 127.712 66.6319 126.848 65.1919 126.032C62.5519 124.496 60.5839 122.576 59.2879 120.272C58.0399 117.92 57.4159 115.28 57.4159 112.352C57.4159 109.664 58.0639 107.264 59.3599 105.152C60.6559 102.992 62.3599 101.288 64.4719 100.04C66.6319 98.792 68.9599 98.168 71.4559 98.168C73.9999 98.168 76.3279 98.816 78.4399 100.112C80.5999 101.36 82.3039 103.064 83.5519 105.224C84.8479 107.336 85.4959 109.712 85.4959 112.352V118.256C85.4959 118.448 85.3999 118.544 85.2079 118.544H77.1439C76.9519 118.544 76.8559 118.448 76.8559 118.256L76.7839 112.352C76.7839 110.672 76.2559 109.304 75.1999 108.248C74.1439 107.192 72.8959 106.664 71.4559 106.664C69.9679 106.664 68.6959 107.24 67.6399 108.392C66.5839 109.496 66.0559 110.816 66.0559 112.352C66.0559 113.936 66.3919 115.256 67.0639 116.312C67.7359 117.368 68.9599 118.376 70.7359 119.336C70.9759 119.48 71.4319 119.744 72.1039 120.128C72.8239 120.464 73.5919 120.872 74.4079 121.352C75.2239 121.784 75.9439 122.168 76.5679 122.504C77.2399 122.84 77.6479 123.056 77.7919 123.152C80.1919 124.496 82.0879 126.152 83.4799 128.12C84.8719 130.04 85.5679 132.416 85.5679 135.248C85.5679 137.984 84.9199 140.456 83.6239 142.664C82.3759 144.824 80.6719 146.552 78.5119 147.848C76.3999 149.096 74.0479 149.72 71.4559 149.72ZM97.4237 149C97.2318 149 97.1357 148.88 97.1357 148.64V107.6H87.7757C87.5357 107.6 87.4157 107.48 87.4157 107.24L87.4877 99.176C87.4877 98.984 87.5837 98.888 87.7757 98.888H115.136C115.376 98.888 115.496 98.984 115.496 99.176V107.24C115.496 107.48 115.4 107.6 115.208 107.6H105.776L105.848 148.64C105.848 148.88 105.752 149 105.56 149H97.4237ZM119.34 149C119.148 149 119.052 148.88 119.052 148.64L119.124 99.176C119.124 98.984 119.22 98.888 119.412 98.888H142.524C142.716 98.888 142.812 99.008 142.812 99.248V107.312C142.812 107.504 142.716 107.6 142.524 107.6H127.764V118.832H142.524C142.716 118.832 142.812 118.928 142.812 119.12L142.884 127.256C142.884 127.448 142.788 127.544 142.596 127.544H127.764V140.144H142.596C142.788 140.144 142.884 140.264 142.884 140.504V148.712C142.884 148.904 142.788 149 142.596 149H119.34ZM149.646 149C149.406 149 149.286 148.88 149.286 148.64L149.43 99.176C149.43 98.984 149.526 98.888 149.718 98.888H163.542C167.958 98.888 171.438 100.232 173.982 102.92C176.574 105.608 177.87 109.256 177.87 113.864C177.87 117.272 177.198 120.224 175.854 122.72C174.51 125.216 172.758 127.136 170.598 128.48C168.438 129.824 166.086 130.496 163.542 130.496H158.07V148.64C158.07 148.88 157.95 149 157.71 149H149.646ZM158.07 121.784H163.542C165.078 121.784 166.398 121.064 167.502 119.624C168.654 118.136 169.23 116.216 169.23 113.864C169.23 111.992 168.726 110.456 167.718 109.256C166.71 108.056 165.318 107.456 163.542 107.456L158.07 107.528V121.784ZM182.48 149C182.288 149 182.193 148.88 182.193 148.64L182.264 99.176C182.264 98.984 182.384 98.888 182.624 98.888H190.617C190.856 98.888 190.977 98.984 190.977 99.176L190.904 118.76H201.704V99.176C201.704 98.984 201.8 98.888 201.992 98.888H209.984C210.225 98.888 210.344 98.984 210.344 99.176L210.488 148.64C210.488 148.88 210.368 149 210.128 149H202.064C201.824 149 201.704 148.88 201.704 148.64V127.472H190.904V148.64C190.904 148.88 190.809 149 190.617 149H182.48ZM216.652 149C216.46 149 216.364 148.88 216.364 148.64L216.436 99.176C216.436 98.984 216.532 98.888 216.724 98.888H239.836C240.028 98.888 240.124 99.008 240.124 99.248V107.312C240.124 107.504 240.028 107.6 239.836 107.6H225.076V118.832H239.836C240.028 118.832 240.124 118.928 240.124 119.12L240.196 127.256C240.196 127.448 240.1 127.544 239.908 127.544H225.076V140.144H239.908C240.1 140.144 240.196 140.264 240.196 140.504V148.712C240.196 148.904 240.1 149 239.908 149H216.652ZM247.247 149C246.863 149 246.671 148.832 246.671 148.496L246.599 99.464C246.599 99.08 246.791 98.888 247.175 98.888H253.655L265.823 127.256L265.463 99.464C265.463 99.08 265.679 98.888 266.111 98.888H273.239C273.527 98.888 273.671 99.08 273.671 99.464L273.743 148.568C273.743 148.856 273.623 149 273.383 149H267.047L254.591 122.504L255.095 148.424C255.095 148.808 254.879 149 254.447 149H247.247ZM290.973 149C290.781 149 290.685 148.88 290.685 148.64L290.829 99.176C290.829 98.984 290.925 98.888 291.117 98.888H304.941C307.677 98.888 310.125 99.56 312.285 100.904C314.445 102.2 316.149 103.928 317.397 106.088C318.645 108.248 319.269 110.6 319.269 113.144C319.269 115.208 318.789 117.128 317.829 118.904C316.917 120.68 315.813 122.12 314.517 123.224C315.909 124.616 316.989 126.224 317.757 128.048C318.525 129.872 318.909 131.792 318.909 133.808C318.909 136.592 318.237 139.136 316.893 141.44C315.549 143.744 313.725 145.592 311.421 146.984C309.165 148.328 306.645 149 303.861 149H290.973ZM299.469 118.76H304.941C306.621 118.76 307.965 118.184 308.973 117.032C310.029 115.832 310.557 114.536 310.557 113.144C310.557 111.608 310.005 110.288 308.901 109.184C307.797 108.032 306.477 107.456 304.941 107.456H299.469V118.76ZM299.397 140.216H303.861C305.589 140.216 307.077 139.592 308.325 138.344C309.573 137.048 310.197 135.536 310.197 133.808C310.197 132.08 309.573 130.592 308.325 129.344C307.077 128.096 305.589 127.472 303.861 127.472H299.469L299.397 140.216ZM337.403 149.72C334.811 149.72 332.435 149.072 330.275 147.776C328.163 146.432 326.459 144.68 325.163 142.52C323.867 140.312 323.219 137.888 323.219 135.248L323.291 112.424C323.291 109.784 323.915 107.384 325.163 105.224C326.459 103.064 328.187 101.336 330.347 100.04C332.507 98.744 334.859 98.096 337.403 98.096C339.995 98.096 342.347 98.744 344.459 100.04C346.571 101.336 348.251 103.064 349.499 105.224C350.795 107.384 351.443 109.784 351.443 112.424L351.515 135.248C351.515 137.888 350.867 140.312 349.571 142.52C348.323 144.68 346.619 146.432 344.459 147.776C342.347 149.072 339.995 149.72 337.403 149.72ZM337.403 141.008C338.843 141.008 340.091 140.432 341.147 139.28C342.251 138.08 342.803 136.736 342.803 135.248L342.731 112.424C342.731 110.84 342.227 109.496 341.219 108.392C340.211 107.288 338.939 106.736 337.403 106.736C335.915 106.736 334.643 107.288 333.587 108.392C332.531 109.448 332.003 110.792 332.003 112.424V135.248C332.003 136.832 332.531 138.2 333.587 139.352C334.643 140.456 335.915 141.008 337.403 141.008ZM362.77 149C362.578 149 362.458 148.88 362.41 148.64L353.914 99.176C353.866 98.984 353.938 98.888 354.13 98.888H362.194C362.386 98.888 362.506 98.984 362.554 99.176L367.162 131.72L371.914 99.176C371.962 98.984 372.106 98.888 372.346 98.888H378.826C379.018 98.888 379.138 98.984 379.186 99.176L383.866 131.72L388.546 99.176C388.594 98.984 388.714 98.888 388.906 98.888H396.898C397.138 98.888 397.234 98.984 397.186 99.176L388.618 148.64C388.57 148.736 388.498 148.832 388.402 148.928L388.258 149H379.546C379.402 149 379.282 148.88 379.186 148.64L375.514 122.792L371.842 148.64C371.794 148.88 371.674 149 371.482 149H362.77ZM401.715 149C401.523 149 401.427 148.88 401.427 148.64L401.499 99.176C401.499 98.984 401.595 98.888 401.787 98.888H424.899C425.091 98.888 425.187 99.008 425.187 99.248V107.312C425.187 107.504 425.091 107.6 424.899 107.6H410.139V118.832H424.899C425.091 118.832 425.187 118.928 425.187 119.12L425.259 127.256C425.259 127.448 425.163 127.544 424.971 127.544H410.139V140.144H424.971C425.163 140.144 425.259 140.264 425.259 140.504V148.712C425.259 148.904 425.163 149 424.971 149H401.715ZM431.949 149C431.757 149 431.661 148.88 431.661 148.64L431.805 99.176C431.805 98.984 431.901 98.888 432.093 98.888H446.637C449.229 98.888 451.605 99.536 453.765 100.832C455.973 102.08 457.725 103.784 459.021 105.944C460.317 108.056 460.965 110.456 460.965 113.144C460.965 114.92 460.701 116.528 460.173 117.968C459.645 119.36 459.021 120.56 458.301 121.568C457.581 122.528 456.933 123.248 456.357 123.728C458.949 126.608 460.245 129.992 460.245 133.88L460.317 148.64C460.317 148.88 460.197 149 459.957 149H451.821C451.629 149 451.533 148.928 451.533 148.784V133.88C451.533 132.152 450.909 130.664 449.661 129.416C448.461 128.12 446.973 127.472 445.197 127.472H440.445L440.373 148.64C440.373 148.88 440.277 149 440.085 149H431.949ZM440.445 118.832H446.637C448.125 118.832 449.445 118.28 450.597 117.176C451.749 116.072 452.325 114.728 452.325 113.144C452.325 111.608 451.749 110.288 450.597 109.184C449.493 108.08 448.173 107.528 446.637 107.528H440.445V118.832ZM478.425 149.72C475.833 149.72 473.457 149.072 471.297 147.776C469.185 146.432 467.481 144.68 466.185 142.52C464.937 140.312 464.313 137.888 464.313 135.248V131.936C464.313 131.696 464.433 131.576 464.673 131.576H472.737C472.929 131.576 473.025 131.696 473.025 131.936V135.248C473.025 136.832 473.553 138.2 474.609 139.352C475.665 140.456 476.937 141.008 478.425 141.008C479.913 141.008 481.185 140.432 482.241 139.28C483.297 138.128 483.825 136.784 483.825 135.248C483.825 133.472 482.673 131.936 480.369 130.64C479.601 130.208 478.401 129.536 476.769 128.624C475.137 127.712 473.601 126.848 472.161 126.032C469.521 124.496 467.553 122.576 466.257 120.272C465.009 117.92 464.385 115.28 464.385 112.352C464.385 109.664 465.033 107.264 466.329 105.152C467.625 102.992 469.329 101.288 471.441 100.04C473.601 98.792 475.929 98.168 478.425 98.168C480.969 98.168 483.297 98.816 485.409 100.112C487.569 101.36 489.273 103.064 490.521 105.224C491.817 107.336 492.465 109.712 492.465 112.352V118.256C492.465 118.448 492.369 118.544 492.177 118.544H484.113C483.921 118.544 483.825 118.448 483.825 118.256L483.753 112.352C483.753 110.672 483.225 109.304 482.169 108.248C481.113 107.192 479.865 106.664 478.425 106.664C476.937 106.664 475.665 107.24 474.609 108.392C473.553 109.496 473.025 110.816 473.025 112.352C473.025 113.936 473.361 115.256 474.033 116.312C474.705 117.368 475.929 118.376 477.705 119.336C477.945 119.48 478.401 119.744 479.073 120.128C479.793 120.464 480.561 120.872 481.377 121.352C482.193 121.784 482.913 122.168 483.537 122.504C484.209 122.84 484.617 123.056 484.761 123.152C487.161 124.496 489.057 126.152 490.449 128.12C491.841 130.04 492.537 132.416 492.537 135.248C492.537 137.984 491.889 140.456 490.593 142.664C489.345 144.824 487.641 146.552 485.481 147.848C483.369 149.096 481.017 149.72 478.425 149.72ZM41.3719 100.457C41.4416 100.601 41.5341 100.645 41.6493 100.59L46.5322 98.228C46.6474 98.1722 46.6702 98.0723 46.6005 97.9283L34.6448 73.3187L40.3055 70.5809C40.4207 70.5252 40.4435 70.4253 40.3738 70.2813L38.0331 65.4416C37.9774 65.3264 37.8775 65.3036 37.7334 65.3732L21.3131 73.3149C21.1979 73.3707 21.1681 73.4562 21.2239 73.5714L23.5214 78.432C23.591 78.576 23.6979 78.6132 23.8419 78.5435L29.4594 75.8266L41.3719 100.457ZM54.5251 94.0956C54.5947 94.2396 54.6872 94.2838 54.8024 94.2281L59.6853 91.8664C59.8005 91.8107 59.8233 91.7108 59.7537 91.5668L53.6093 78.8626L60.091 75.7278L66.2354 88.4319C66.305 88.5759 66.4119 88.6131 66.5559 88.5435L71.3956 86.2028C71.5396 86.1331 71.5768 86.0262 71.5072 85.8822L57.063 56.2378C57.0072 56.1226 56.9074 56.0998 56.7633 56.1694L51.9669 58.4892C51.8516 58.545 51.8219 58.6305 51.8776 58.7457L57.5622 70.4992L51.0805 73.6341L45.4391 61.8597C45.3834 61.7444 45.2835 61.7217 45.1395 61.7913L40.343 64.1111C40.199 64.1808 40.1548 64.2732 40.2105 64.3885L54.5251 94.0956ZM64.5649 52.6095L73.5644 84.8872C73.6341 85.0312 73.7265 85.0754 73.8418 85.0197L78.6382 82.6999C78.7535 82.6441 78.7906 82.5373 78.7498 82.3793L77.6995 78.995L83.5762 76.1527L85.5772 79.0772C85.6757 79.2073 85.7825 79.2445 85.8977 79.1888L90.6942 76.869C90.8382 76.7993 90.861 76.6994 90.7626 76.5693L71.2626 49.3701C71.1781 49.2688 71.0782 49.246 70.963 49.3018L64.6973 52.3321C64.5821 52.3879 64.538 52.4803 64.5649 52.6095ZM80.4758 71.9471L76.3275 73.9534L72.3993 60.8705L71.7989 59.1881L72.8314 60.6615L80.4758 71.9471ZM95.555 74.2515C95.6246 74.3955 95.7171 74.4397 95.8323 74.3839L100.715 72.0223C100.83 71.9666 100.853 71.8667 100.784 71.7227L88.8278 47.1131L94.4885 44.3753C94.6037 44.3195 94.6265 44.2197 94.5568 44.0756L92.2161 39.236C92.1604 39.1207 92.0605 39.0979 91.9165 39.1676L75.4961 47.1093C75.3809 47.165 75.3511 47.2505 75.4069 47.3657L77.7044 52.2263C77.774 52.3704 77.8809 52.4075 78.0249 52.3379L83.6424 49.621L95.555 74.2515Z"/>
</mask>
<path fill-rule="evenodd" clip-rule="evenodd" d="M346.129 176.435C344.314 178.953 341.355 180.592 338.013 180.592H222.284C218.827 180.592 215.779 178.838 213.983 176.17L27.1371 237.895C20.5999 240.055 13.8866 235.116 14.0015 228.233L17.5465 15.8413C17.6614 8.95757 24.5358 4.2464 30.9973 6.62323L212.176 73.2692C212.268 73.2492 212.36 73.2306 212.453 73.2132C213.317 68.5694 217.39 65.0536 222.284 65.0536H338.013C342.839 65.0536 346.868 68.4734 347.806 73.0223L528.313 6.62323C534.775 4.2464 541.649 8.95757 541.764 15.8413L545.309 228.233C545.424 235.116 538.711 240.055 532.174 237.895L346.129 176.435ZM71.4559 149.72C68.8639 149.72 66.4879 149.072 64.3279 147.776C62.2159 146.432 60.5119 144.68 59.2159 142.52C57.9679 140.312 57.3439 137.888 57.3439 135.248V131.936C57.3439 131.696 57.4639 131.576 57.7039 131.576H65.7679C65.9599 131.576 66.0559 131.696 66.0559 131.936V135.248C66.0559 136.832 66.5839 138.2 67.6399 139.352C68.6959 140.456 69.9679 141.008 71.4559 141.008C72.9439 141.008 74.2159 140.432 75.2719 139.28C76.3279 138.128 76.8559 136.784 76.8559 135.248C76.8559 133.472 75.7039 131.936 73.3999 130.64C72.6319 130.208 71.4319 129.536 69.7999 128.624C68.1679 127.712 66.6319 126.848 65.1919 126.032C62.5519 124.496 60.5839 122.576 59.2879 120.272C58.0399 117.92 57.4159 115.28 57.4159 112.352C57.4159 109.664 58.0639 107.264 59.3599 105.152C60.6559 102.992 62.3599 101.288 64.4719 100.04C66.6319 98.792 68.9599 98.168 71.4559 98.168C73.9999 98.168 76.3279 98.816 78.4399 100.112C80.5999 101.36 82.3039 103.064 83.5519 105.224C84.8479 107.336 85.4959 109.712 85.4959 112.352V118.256C85.4959 118.448 85.3999 118.544 85.2079 118.544H77.1439C76.9519 118.544 76.8559 118.448 76.8559 118.256L76.7839 112.352C76.7839 110.672 76.2559 109.304 75.1999 108.248C74.1439 107.192 72.8959 106.664 71.4559 106.664C69.9679 106.664 68.6959 107.24 67.6399 108.392C66.5839 109.496 66.0559 110.816 66.0559 112.352C66.0559 113.936 66.3919 115.256 67.0639 116.312C67.7359 117.368 68.9599 118.376 70.7359 119.336C70.9759 119.48 71.4319 119.744 72.1039 120.128C72.8239 120.464 73.5919 120.872 74.4079 121.352C75.2239 121.784 75.9439 122.168 76.5679 122.504C77.2399 122.84 77.6479 123.056 77.7919 123.152C80.1919 124.496 82.0879 126.152 83.4799 128.12C84.8719 130.04 85.5679 132.416 85.5679 135.248C85.5679 137.984 84.9199 140.456 83.6239 142.664C82.3759 144.824 80.6719 146.552 78.5119 147.848C76.3999 149.096 74.0479 149.72 71.4559 149.72ZM97.4237 149C97.2318 149 97.1357 148.88 97.1357 148.64V107.6H87.7757C87.5357 107.6 87.4157 107.48 87.4157 107.24L87.4877 99.176C87.4877 98.984 87.5837 98.888 87.7757 98.888H115.136C115.376 98.888 115.496 98.984 115.496 99.176V107.24C115.496 107.48 115.4 107.6 115.208 107.6H105.776L105.848 148.64C105.848 148.88 105.752 149 105.56 149H97.4237ZM119.34 149C119.148 149 119.052 148.88 119.052 148.64L119.124 99.176C119.124 98.984 119.22 98.888 119.412 98.888H142.524C142.716 98.888 142.812 99.008 142.812 99.248V107.312C142.812 107.504 142.716 107.6 142.524 107.6H127.764V118.832H142.524C142.716 118.832 142.812 118.928 142.812 119.12L142.884 127.256C142.884 127.448 142.788 127.544 142.596 127.544H127.764V140.144H142.596C142.788 140.144 142.884 140.264 142.884 140.504V148.712C142.884 148.904 142.788 149 142.596 149H119.34ZM149.646 149C149.406 149 149.286 148.88 149.286 148.64L149.43 99.176C149.43 98.984 149.526 98.888 149.718 98.888H163.542C167.958 98.888 171.438 100.232 173.982 102.92C176.574 105.608 177.87 109.256 177.87 113.864C177.87 117.272 177.198 120.224 175.854 122.72C174.51 125.216 172.758 127.136 170.598 128.48C168.438 129.824 166.086 130.496 163.542 130.496H158.07V148.64C158.07 148.88 157.95 149 157.71 149H149.646ZM158.07 121.784H163.542C165.078 121.784 166.398 121.064 167.502 119.624C168.654 118.136 169.23 116.216 169.23 113.864C169.23 111.992 168.726 110.456 167.718 109.256C166.71 108.056 165.318 107.456 163.542 107.456L158.07 107.528V121.784ZM182.48 149C182.288 149 182.193 148.88 182.193 148.64L182.264 99.176C182.264 98.984 182.384 98.888 182.624 98.888H190.617C190.856 98.888 190.977 98.984 190.977 99.176L190.904 118.76H201.704V99.176C201.704 98.984 201.8 98.888 201.992 98.888H209.984C210.225 98.888 210.344 98.984 210.344 99.176L210.488 148.64C210.488 148.88 210.368 149 210.128 149H202.064C201.824 149 201.704 148.88 201.704 148.64V127.472H190.904V148.64C190.904 148.88 190.809 149 190.617 149H182.48ZM216.652 149C216.46 149 216.364 148.88 216.364 148.64L216.436 99.176C216.436 98.984 216.532 98.888 216.724 98.888H239.836C240.028 98.888 240.124 99.008 240.124 99.248V107.312C240.124 107.504 240.028 107.6 239.836 107.6H225.076V118.832H239.836C240.028 118.832 240.124 118.928 240.124 119.12L240.196 127.256C240.196 127.448 240.1 127.544 239.908 127.544H225.076V140.144H239.908C240.1 140.144 240.196 140.264 240.196 140.504V148.712C240.196 148.904 240.1 149 239.908 149H216.652ZM247.247 149C246.863 149 246.671 148.832 246.671 148.496L246.599 99.464C246.599 99.08 246.791 98.888 247.175 98.888H253.655L265.823 127.256L265.463 99.464C265.463 99.08 265.679 98.888 266.111 98.888H273.239C273.527 98.888 273.671 99.08 273.671 99.464L273.743 148.568C273.743 148.856 273.623 149 273.383 149H267.047L254.591 122.504L255.095 148.424C255.095 148.808 254.879 149 254.447 149H247.247ZM290.973 149C290.781 149 290.685 148.88 290.685 148.64L290.829 99.176C290.829 98.984 290.925 98.888 291.117 98.888H304.941C307.677 98.888 310.125 99.56 312.285 100.904C314.445 102.2 316.149 103.928 317.397 106.088C318.645 108.248 319.269 110.6 319.269 113.144C319.269 115.208 318.789 117.128 317.829 118.904C316.917 120.68 315.813 122.12 314.517 123.224C315.909 124.616 316.989 126.224 317.757 128.048C318.525 129.872 318.909 131.792 318.909 133.808C318.909 136.592 318.237 139.136 316.893 141.44C315.549 143.744 313.725 145.592 311.421 146.984C309.165 148.328 306.645 149 303.861 149H290.973ZM299.469 118.76H304.941C306.621 118.76 307.965 118.184 308.973 117.032C310.029 115.832 310.557 114.536 310.557 113.144C310.557 111.608 310.005 110.288 308.901 109.184C307.797 108.032 306.477 107.456 304.941 107.456H299.469V118.76ZM299.397 140.216H303.861C305.589 140.216 307.077 139.592 308.325 138.344C309.573 137.048 310.197 135.536 310.197 133.808C310.197 132.08 309.573 130.592 308.325 129.344C307.077 128.096 305.589 127.472 303.861 127.472H299.469L299.397 140.216ZM337.403 149.72C334.811 149.72 332.435 149.072 330.275 147.776C328.163 146.432 326.459 144.68 325.163 142.52C323.867 140.312 323.219 137.888 323.219 135.248L323.291 112.424C323.291 109.784 323.915 107.384 325.163 105.224C326.459 103.064 328.187 101.336 330.347 100.04C332.507 98.744 334.859 98.096 337.403 98.096C339.995 98.096 342.347 98.744 344.459 100.04C346.571 101.336 348.251 103.064 349.499 105.224C350.795 107.384 351.443 109.784 351.443 112.424L351.515 135.248C351.515 137.888 350.867 140.312 349.571 142.52C348.323 144.68 346.619 146.432 344.459 147.776C342.347 149.072 339.995 149.72 337.403 149.72ZM337.403 141.008C338.843 141.008 340.091 140.432 341.147 139.28C342.251 138.08 342.803 136.736 342.803 135.248L342.731 112.424C342.731 110.84 342.227 109.496 341.219 108.392C340.211 107.288 338.939 106.736 337.403 106.736C335.915 106.736 334.643 107.288 333.587 108.392C332.531 109.448 332.003 110.792 332.003 112.424V135.248C332.003 136.832 332.531 138.2 333.587 139.352C334.643 140.456 335.915 141.008 337.403 141.008ZM362.77 149C362.578 149 362.458 148.88 362.41 148.64L353.914 99.176C353.866 98.984 353.938 98.888 354.13 98.888H362.194C362.386 98.888 362.506 98.984 362.554 99.176L367.162 131.72L371.914 99.176C371.962 98.984 372.106 98.888 372.346 98.888H378.826C379.018 98.888 379.138 98.984 379.186 99.176L383.866 131.72L388.546 99.176C388.594 98.984 388.714 98.888 388.906 98.888H396.898C397.138 98.888 397.234 98.984 397.186 99.176L388.618 148.64C388.57 148.736 388.498 148.832 388.402 148.928L388.258 149H379.546C379.402 149 379.282 148.88 379.186 148.64L375.514 122.792L371.842 148.64C371.794 148.88 371.674 149 371.482 149H362.77ZM401.715 149C401.523 149 401.427 148.88 401.427 148.64L401.499 99.176C401.499 98.984 401.595 98.888 401.787 98.888H424.899C425.091 98.888 425.187 99.008 425.187 99.248V107.312C425.187 107.504 425.091 107.6 424.899 107.6H410.139V118.832H424.899C425.091 118.832 425.187 118.928 425.187 119.12L425.259 127.256C425.259 127.448 425.163 127.544 424.971 127.544H410.139V140.144H424.971C425.163 140.144 425.259 140.264 425.259 140.504V148.712C425.259 148.904 425.163 149 424.971 149H401.715ZM431.949 149C431.757 149 431.661 148.88 431.661 148.64L431.805 99.176C431.805 98.984 431.901 98.888 432.093 98.888H446.637C449.229 98.888 451.605 99.536 453.765 100.832C455.973 102.08 457.725 103.784 459.021 105.944C460.317 108.056 460.965 110.456 460.965 113.144C460.965 114.92 460.701 116.528 460.173 117.968C459.645 119.36 459.021 120.56 458.301 121.568C457.581 122.528 456.933 123.248 456.357 123.728C458.949 126.608 460.245 129.992 460.245 133.88L460.317 148.64C460.317 148.88 460.197 149 459.957 149H451.821C451.629 149 451.533 148.928 451.533 148.784V133.88C451.533 132.152 450.909 130.664 449.661 129.416C448.461 128.12 446.973 127.472 445.197 127.472H440.445L440.373 148.64C440.373 148.88 440.277 149 440.085 149H431.949ZM440.445 118.832H446.637C448.125 118.832 449.445 118.28 450.597 117.176C451.749 116.072 452.325 114.728 452.325 113.144C452.325 111.608 451.749 110.288 450.597 109.184C449.493 108.08 448.173 107.528 446.637 107.528H440.445V118.832ZM478.425 149.72C475.833 149.72 473.457 149.072 471.297 147.776C469.185 146.432 467.481 144.68 466.185 142.52C464.937 140.312 464.313 137.888 464.313 135.248V131.936C464.313 131.696 464.433 131.576 464.673 131.576H472.737C472.929 131.576 473.025 131.696 473.025 131.936V135.248C473.025 136.832 473.553 138.2 474.609 139.352C475.665 140.456 476.937 141.008 478.425 141.008C479.913 141.008 481.185 140.432 482.241 139.28C483.297 138.128 483.825 136.784 483.825 135.248C483.825 133.472 482.673 131.936 480.369 130.64C479.601 130.208 478.401 129.536 476.769 128.624C475.137 127.712 473.601 126.848 472.161 126.032C469.521 124.496 467.553 122.576 466.257 120.272C465.009 117.92 464.385 115.28 464.385 112.352C464.385 109.664 465.033 107.264 466.329 105.152C467.625 102.992 469.329 101.288 471.441 100.04C473.601 98.792 475.929 98.168 478.425 98.168C480.969 98.168 483.297 98.816 485.409 100.112C487.569 101.36 489.273 103.064 490.521 105.224C491.817 107.336 492.465 109.712 492.465 112.352V118.256C492.465 118.448 492.369 118.544 492.177 118.544H484.113C483.921 118.544 483.825 118.448 483.825 118.256L483.753 112.352C483.753 110.672 483.225 109.304 482.169 108.248C481.113 107.192 479.865 106.664 478.425 106.664C476.937 106.664 475.665 107.24 474.609 108.392C473.553 109.496 473.025 110.816 473.025 112.352C473.025 113.936 473.361 115.256 474.033 116.312C474.705 117.368 475.929 118.376 477.705 119.336C477.945 119.48 478.401 119.744 479.073 120.128C479.793 120.464 480.561 120.872 481.377 121.352C482.193 121.784 482.913 122.168 483.537 122.504C484.209 122.84 484.617 123.056 484.761 123.152C487.161 124.496 489.057 126.152 490.449 128.12C491.841 130.04 492.537 132.416 492.537 135.248C492.537 137.984 491.889 140.456 490.593 142.664C489.345 144.824 487.641 146.552 485.481 147.848C483.369 149.096 481.017 149.72 478.425 149.72ZM41.3719 100.457C41.4416 100.601 41.5341 100.645 41.6493 100.59L46.5322 98.228C46.6474 98.1722 46.6702 98.0723 46.6005 97.9283L34.6448 73.3187L40.3055 70.5809C40.4207 70.5252 40.4435 70.4253 40.3738 70.2813L38.0331 65.4416C37.9774 65.3264 37.8775 65.3036 37.7334 65.3732L21.3131 73.3149C21.1979 73.3707 21.1681 73.4562 21.2239 73.5714L23.5214 78.432C23.591 78.576 23.6979 78.6132 23.8419 78.5435L29.4594 75.8266L41.3719 100.457ZM54.5251 94.0956C54.5947 94.2396 54.6872 94.2838 54.8024 94.2281L59.6853 91.8664C59.8005 91.8107 59.8233 91.7108 59.7537 91.5668L53.6093 78.8626L60.091 75.7278L66.2354 88.4319C66.305 88.5759 66.4119 88.6131 66.5559 88.5435L71.3956 86.2028C71.5396 86.1331 71.5768 86.0262 71.5072 85.8822L57.063 56.2378C57.0072 56.1226 56.9074 56.0998 56.7633 56.1694L51.9669 58.4892C51.8516 58.545 51.8219 58.6305 51.8776 58.7457L57.5622 70.4992L51.0805 73.6341L45.4391 61.8597C45.3834 61.7444 45.2835 61.7217 45.1395 61.7913L40.343 64.1111C40.199 64.1808 40.1548 64.2732 40.2105 64.3885L54.5251 94.0956ZM64.5649 52.6095L73.5644 84.8872C73.6341 85.0312 73.7265 85.0754 73.8418 85.0197L78.6382 82.6999C78.7535 82.6441 78.7906 82.5373 78.7498 82.3793L77.6995 78.995L83.5762 76.1527L85.5772 79.0772C85.6757 79.2073 85.7825 79.2445 85.8977 79.1888L90.6942 76.869C90.8382 76.7993 90.861 76.6994 90.7626 76.5693L71.2626 49.3701C71.1781 49.2688 71.0782 49.246 70.963 49.3018L64.6973 52.3321C64.5821 52.3879 64.538 52.4803 64.5649 52.6095ZM80.4758 71.9471L76.3275 73.9534L72.3993 60.8705L71.7989 59.1881L72.8314 60.6615L80.4758 71.9471ZM95.555 74.2515C95.6246 74.3955 95.7171 74.4397 95.8323 74.3839L100.715 72.0223C100.83 71.9666 100.853 71.8667 100.784 71.7227L88.8278 47.1131L94.4885 44.3753C94.6037 44.3195 94.6265 44.2197 94.5568 44.0756L92.2161 39.236C92.1604 39.1207 92.0605 39.0979 91.9165 39.1676L75.4961 47.1093C75.3809 47.165 75.3511 47.2505 75.4069 47.3657L77.7044 52.2263C77.774 52.3704 77.8809 52.4075 78.0249 52.3379L83.6424 49.621L95.555 74.2515Z" fill="#7293C5"/>
<path d="M346.129 176.435L346.757 174.536L345.365 174.076L344.507 175.265L346.129 176.435ZM213.983 176.17L215.642 175.053L214.795 173.795L213.356 174.271L213.983 176.17ZM27.1371 237.895L26.5097 235.996L26.5097 235.996L27.1371 237.895ZM14.0015 228.233L12.0017 228.199L14.0015 228.233ZM17.5465 15.8413L19.5463 15.8747L19.5463 15.8747L17.5465 15.8413ZM30.9973 6.62323L30.3068 8.50026L30.3068 8.50026L30.9973 6.62323ZM212.176 73.2692L211.485 75.1462L212.03 75.3468L212.598 75.2239L212.176 73.2692ZM212.453 73.2132L212.821 75.1792L214.169 74.9275L214.42 73.579L212.453 73.2132ZM347.806 73.0223L345.847 73.4265L346.317 75.7012L348.497 74.8993L347.806 73.0223ZM528.313 6.62323L527.623 4.74619L527.623 4.74619L528.313 6.62323ZM541.764 15.8413L543.764 15.8079L543.764 15.8079L541.764 15.8413ZM545.309 228.233L547.309 228.199L547.309 228.199L545.309 228.233ZM532.174 237.895L532.801 235.996L532.801 235.996L532.174 237.895ZM64.3279 147.776L63.2542 149.463L63.2764 149.477L63.2989 149.491L64.3279 147.776ZM59.2159 142.52L57.4748 143.504L57.4876 143.527L57.501 143.549L59.2159 142.52ZM67.6399 139.352L66.1656 140.703L66.18 140.719L66.1947 140.734L67.6399 139.352ZM75.2719 139.28L73.7976 137.929L73.7976 137.929L75.2719 139.28ZM73.3999 130.64L74.3805 128.897L74.3805 128.897L73.3999 130.64ZM65.1919 126.032L64.1862 127.761L64.196 127.766L64.2059 127.772L65.1919 126.032ZM59.2879 120.272L57.5212 121.209L57.5327 121.231L57.5448 121.253L59.2879 120.272ZM59.3599 105.152L61.0646 106.198L61.0698 106.19L61.0749 106.181L59.3599 105.152ZM64.4719 100.04L63.4714 98.3083L63.4629 98.3132L63.4545 98.3181L64.4719 100.04ZM78.4399 100.112L77.3939 101.817L77.4165 101.83L77.4394 101.844L78.4399 100.112ZM83.5519 105.224L81.8202 106.225L81.8334 106.247L81.8473 106.27L83.5519 105.224ZM76.8559 118.256H78.8559V118.244L78.8558 118.232L76.8559 118.256ZM76.7839 112.352H74.7839V112.364L74.7841 112.376L76.7839 112.352ZM75.1999 108.248L76.6142 106.834L76.6141 106.834L75.1999 108.248ZM67.6399 108.392L69.0852 109.774L69.0999 109.759L69.1142 109.743L67.6399 108.392ZM70.7359 119.336L71.7649 117.621L71.7264 117.598L71.687 117.577L70.7359 119.336ZM72.1039 120.128L71.1117 121.864L71.1833 121.905L71.2582 121.94L72.1039 120.128ZM74.4079 121.352L73.3939 123.076L73.4325 123.099L73.4722 123.12L74.4079 121.352ZM76.5679 122.504L75.6197 124.265L75.6464 124.279L75.6735 124.293L76.5679 122.504ZM77.7919 123.152L76.6825 124.816L76.7471 124.859L76.8147 124.897L77.7919 123.152ZM83.4799 128.12L81.8471 129.275L81.8539 129.284L81.8607 129.294L83.4799 128.12ZM83.6239 142.664L81.8991 141.652L81.8922 141.663L83.6239 142.664ZM78.5119 147.848L79.5294 149.57L79.5409 149.563L78.5119 147.848ZM97.1357 107.6H99.1357V105.6H97.1357V107.6ZM87.4157 107.24L85.4158 107.222L85.4157 107.231V107.24H87.4157ZM87.4877 99.176L89.4877 99.1939L89.4877 99.1849V99.176H87.4877ZM105.776 107.6V105.6H103.772L103.776 107.604L105.776 107.6ZM105.848 148.64L107.848 148.64L107.848 148.636L105.848 148.64ZM119.052 148.64L117.052 148.637V148.64H119.052ZM119.124 99.176L121.124 99.1789V99.176H119.124ZM127.764 107.6V105.6H125.764V107.6H127.764ZM127.764 118.832H125.764V120.832H127.764V118.832ZM142.812 119.12H140.812V119.129L140.812 119.138L142.812 119.12ZM142.884 127.256H144.884V127.247L144.884 127.238L142.884 127.256ZM127.764 127.544V125.544H125.764V127.544H127.764ZM127.764 140.144H125.764V142.144H127.764V140.144ZM149.286 148.64L147.286 148.634V148.64H149.286ZM149.43 99.176L151.43 99.1818V99.176H149.43ZM173.982 102.92L172.53 104.295L172.536 104.302L172.543 104.308L173.982 102.92ZM175.854 122.72L177.615 123.668L177.615 123.668L175.854 122.72ZM170.598 128.48L169.542 126.782L169.542 126.782L170.598 128.48ZM158.07 130.496V128.496H156.07V130.496H158.07ZM158.07 121.784H156.07V123.784H158.07V121.784ZM167.502 119.624L165.921 118.4L165.915 118.407L167.502 119.624ZM167.718 109.256L169.25 107.97L169.25 107.97L167.718 109.256ZM163.542 107.456V105.456H163.529L163.516 105.456L163.542 107.456ZM158.07 107.528L158.044 105.528L156.07 105.554V107.528H158.07ZM182.193 148.64L180.193 148.637V148.64H182.193ZM182.264 99.176L184.264 99.1789V99.176H182.264ZM190.977 99.176L192.977 99.1833V99.176H190.977ZM190.904 118.76L188.905 118.753L188.897 120.76H190.904V118.76ZM201.704 118.76V120.76H203.704V118.76H201.704ZM210.344 99.176L208.344 99.176L208.345 99.1818L210.344 99.176ZM210.488 148.64L212.489 148.64L212.488 148.634L210.488 148.64ZM201.704 127.472H203.704V125.472H201.704V127.472ZM190.904 127.472V125.472H188.904V127.472H190.904ZM216.364 148.64L214.364 148.637V148.64H216.364ZM216.436 99.176L218.436 99.1789V99.176H216.436ZM225.076 107.6V105.6H223.076V107.6H225.076ZM225.076 118.832H223.076V120.832H225.076V118.832ZM240.124 119.12H238.124V119.129L238.124 119.138L240.124 119.12ZM240.196 127.256H242.196V127.247L242.196 127.238L240.196 127.256ZM225.076 127.544V125.544H223.076V127.544H225.076ZM225.076 140.144H223.076V142.144H225.076V140.144ZM246.671 148.496L248.671 148.496L248.671 148.493L246.671 148.496ZM246.599 99.464H244.599L244.599 99.4669L246.599 99.464ZM253.655 98.888L255.493 98.0996L254.973 96.888H253.655V98.888ZM265.823 127.256L263.985 128.044L267.823 127.23L265.823 127.256ZM265.463 99.464H263.463V99.4769L263.463 99.4899L265.463 99.464ZM273.671 99.464L271.671 99.464L271.671 99.4669L273.671 99.464ZM273.743 148.568L275.743 148.568L275.743 148.565L273.743 148.568ZM267.047 149L265.237 149.851L265.777 151H267.047V149ZM254.591 122.504L256.401 121.653L252.591 122.543L254.591 122.504ZM255.095 148.424H257.095V148.405L257.094 148.385L255.095 148.424ZM290.685 148.64L288.685 148.634V148.64H290.685ZM290.829 99.176L292.829 99.1818V99.176H290.829ZM312.285 100.904L311.228 102.602L311.242 102.611L311.256 102.619L312.285 100.904ZM317.397 106.088L319.128 105.087L319.128 105.087L317.397 106.088ZM317.829 118.904L316.069 117.953L316.059 117.972L316.05 117.99L317.829 118.904ZM314.517 123.224L313.22 121.702L311.571 123.106L313.102 124.638L314.517 123.224ZM317.757 128.048L319.6 127.272L319.6 127.272L317.757 128.048ZM316.893 141.44L318.62 142.448L318.62 142.448L316.893 141.44ZM311.421 146.984L312.444 148.702L312.455 148.696L311.421 146.984ZM299.469 118.76H297.469V120.76H299.469V118.76ZM308.973 117.032L307.471 115.711L307.468 115.715L308.973 117.032ZM308.901 109.184L307.457 110.568L307.471 110.583L307.486 110.598L308.901 109.184ZM299.469 107.456V105.456H297.469V107.456H299.469ZM299.397 140.216L297.397 140.205L297.385 142.216H299.397V140.216ZM308.325 138.344L309.739 139.758L309.752 139.745L309.765 139.731L308.325 138.344ZM308.325 129.344L306.91 130.758L306.91 130.758L308.325 129.344ZM299.469 127.472V125.472H297.48L297.469 127.461L299.469 127.472ZM330.275 147.776L329.201 149.463L329.224 149.477L329.246 149.491L330.275 147.776ZM325.163 142.52L323.438 143.532L323.443 143.541L323.448 143.549L325.163 142.52ZM323.219 135.248L321.219 135.242V135.248H323.219ZM323.291 112.424L325.291 112.43V112.424H323.291ZM325.163 105.224L323.448 104.195L323.44 104.209L323.431 104.223L325.163 105.224ZM330.347 100.04L331.376 101.755L331.376 101.755L330.347 100.04ZM344.459 100.04L343.413 101.745L343.413 101.745L344.459 100.04ZM349.499 105.224L347.767 106.225L347.776 106.239L347.784 106.253L349.499 105.224ZM351.443 112.424L349.443 112.424L349.443 112.43L351.443 112.424ZM351.515 135.248H353.515L353.515 135.242L351.515 135.248ZM349.571 142.52L347.846 141.508L347.839 141.519L349.571 142.52ZM344.459 147.776L345.505 149.481L345.516 149.474L344.459 147.776ZM341.147 139.28L339.675 137.926L339.673 137.929L341.147 139.28ZM342.803 135.248H344.803L344.803 135.242L342.803 135.248ZM342.731 112.424L340.731 112.424L340.731 112.43L342.731 112.424ZM341.219 108.392L342.696 107.043L342.696 107.043L341.219 108.392ZM333.587 108.392L335.001 109.806L335.017 109.791L335.032 109.774L333.587 108.392ZM333.587 139.352L332.113 140.703L332.127 140.719L332.142 140.734L333.587 139.352ZM362.41 148.64L360.439 148.979L360.443 149.005L360.448 149.032L362.41 148.64ZM353.914 99.176L355.885 98.8374L355.872 98.7636L355.854 98.6909L353.914 99.176ZM362.554 99.176L364.534 98.8956L364.519 98.7922L364.494 98.6909L362.554 99.176ZM367.162 131.72L365.181 132L369.141 132.009L367.162 131.72ZM371.914 99.176L369.973 98.6912L369.949 98.7881L369.935 98.887L371.914 99.176ZM379.186 99.176L381.165 98.8913L381.151 98.7902L381.126 98.6912L379.186 99.176ZM383.866 131.72L381.886 132.005L385.845 132.005L383.866 131.72ZM388.546 99.176L386.605 98.6909L386.581 98.7901L386.566 98.8913L388.546 99.176ZM397.186 99.176L395.245 98.6909L395.228 98.7622L395.215 98.8346L397.186 99.176ZM388.618 148.64L390.406 149.535L390.538 149.271L390.588 148.981L388.618 148.64ZM388.402 148.928L389.296 150.717L389.586 150.572L389.816 150.342L388.402 148.928ZM388.258 149V151H388.73L389.152 150.789L388.258 149ZM379.186 148.64L377.205 148.921L377.239 149.159L377.329 149.383L379.186 148.64ZM375.514 122.792L377.494 122.511H373.533L375.514 122.792ZM371.842 148.64L373.803 149.032L373.814 148.977L373.822 148.921L371.842 148.64ZM401.427 148.64L399.427 148.637V148.64H401.427ZM401.499 99.176L403.499 99.1789V99.176H401.499ZM410.139 107.6V105.6H408.139V107.6H410.139ZM410.139 118.832H408.139V120.832H410.139V118.832ZM425.187 119.12H423.187V119.129L423.187 119.138L425.187 119.12ZM425.259 127.256H427.259V127.247L427.259 127.238L425.259 127.256ZM410.139 127.544V125.544H408.139V127.544H410.139ZM410.139 140.144H408.139V142.144H410.139V140.144ZM431.661 148.64L429.661 148.634V148.64H431.661ZM431.805 99.176L433.805 99.1818V99.176H431.805ZM453.765 100.832L452.736 102.547L452.759 102.56L452.781 102.573L453.765 100.832ZM459.021 105.944L457.306 106.973L457.311 106.982L457.317 106.99L459.021 105.944ZM460.173 117.968L462.043 118.677L462.047 118.667L462.051 118.657L460.173 117.968ZM458.301 121.568L459.901 122.768L459.915 122.749L459.929 122.73L458.301 121.568ZM456.357 123.728L455.077 122.192L453.481 123.522L454.871 125.066L456.357 123.728ZM460.245 133.88L458.245 133.88L458.245 133.89L460.245 133.88ZM460.317 148.64L462.317 148.64L462.317 148.63L460.317 148.64ZM449.661 129.416L448.194 130.775L448.22 130.803L448.247 130.83L449.661 129.416ZM440.445 127.472V125.472H438.452L438.445 127.465L440.445 127.472ZM440.373 148.64L438.373 148.633V148.64H440.373ZM440.445 118.832H438.445V120.832H440.445V118.832ZM450.597 117.176L451.981 118.62L451.981 118.62L450.597 117.176ZM450.597 109.184L449.183 110.598L449.198 110.613L449.213 110.628L450.597 109.184ZM440.445 107.528V105.528H438.445V107.528H440.445ZM471.297 147.776L470.223 149.463L470.245 149.477L470.268 149.491L471.297 147.776ZM466.185 142.52L464.444 143.504L464.456 143.527L464.47 143.549L466.185 142.52ZM474.609 139.352L473.134 140.703L473.149 140.719L473.163 140.734L474.609 139.352ZM482.241 139.28L480.766 137.929L480.766 137.929L482.241 139.28ZM476.769 128.624L475.793 130.37L475.793 130.37L476.769 128.624ZM472.161 126.032L471.155 127.761L471.165 127.766L471.175 127.772L472.161 126.032ZM466.257 120.272L464.49 121.209L464.501 121.231L464.514 121.253L466.257 120.272ZM466.329 105.152L468.033 106.198L468.039 106.19L468.044 106.181L466.329 105.152ZM471.441 100.04L470.44 98.3083L470.432 98.3132L470.423 98.3181L471.441 100.04ZM485.409 100.112L484.363 101.817L484.385 101.83L484.408 101.844L485.409 100.112ZM490.521 105.224L488.789 106.225L488.802 106.247L488.816 106.27L490.521 105.224ZM483.825 118.256H485.825V118.244L485.825 118.232L483.825 118.256ZM483.753 112.352H481.753V112.364L481.753 112.376L483.753 112.352ZM482.169 108.248L483.583 106.834L483.583 106.834L482.169 108.248ZM474.609 108.392L476.054 109.774L476.069 109.759L476.083 109.743L474.609 108.392ZM477.705 119.336L478.734 117.621L478.695 117.598L478.656 117.577L477.705 119.336ZM479.073 120.128L478.08 121.864L478.152 121.905L478.227 121.94L479.073 120.128ZM481.377 121.352L480.363 123.076L480.401 123.099L480.441 123.12L481.377 121.352ZM483.537 122.504L482.588 124.265L482.615 124.279L482.642 124.293L483.537 122.504ZM484.761 123.152L483.651 124.816L483.716 124.859L483.783 124.897L484.761 123.152ZM490.449 128.12L488.816 129.275L488.823 129.284L488.829 129.294L490.449 128.12ZM490.593 142.664L488.868 141.652L488.861 141.663L490.593 142.664ZM485.481 147.848L486.498 149.57L486.51 149.563L485.481 147.848ZM41.6493 100.59L40.7785 98.7891L40.7785 98.7891L41.6493 100.59ZM41.3719 100.457L39.5715 101.328L39.5715 101.328L41.3719 100.457ZM46.5322 98.228L45.6614 96.4275L45.6614 96.4275L46.5322 98.228ZM46.6005 97.9283L48.401 97.0575L48.3995 97.0543L46.6005 97.9283ZM34.6448 73.3187L33.774 71.5182L31.9703 72.3906L32.8458 74.1927L34.6448 73.3187ZM40.3055 70.5809L41.1762 72.3814L41.1763 72.3814L40.3055 70.5809ZM40.3738 70.2813L38.5733 71.1521L38.5733 71.1521L40.3738 70.2813ZM38.0331 65.4416L36.2326 66.3124L36.2326 66.3124L38.0331 65.4416ZM37.7334 65.3732L36.8626 63.5728L36.8626 63.5728L37.7334 65.3732ZM21.3131 73.3149L22.1838 75.1155L22.1839 75.1154L21.3131 73.3149ZM21.2239 73.5714L23.032 72.7167L23.0282 72.7086L23.0243 72.7006L21.2239 73.5714ZM23.5214 78.432L21.7132 79.2867L21.717 79.2947L21.7209 79.3028L23.5214 78.432ZM23.8419 78.5435L22.9711 76.7431L22.9711 76.7431L23.8419 78.5435ZM29.4594 75.8266L31.2599 74.9558L30.3891 73.1553L28.5886 74.0261L29.4594 75.8266ZM54.8024 94.2281L53.9316 92.4276L53.9316 92.4276L54.8024 94.2281ZM54.5251 94.0956L52.7233 94.9638L52.7246 94.9664L54.5251 94.0956ZM59.6853 91.8664L60.5561 93.6669L60.5561 93.6669L59.6853 91.8664ZM59.7537 91.5668L57.9532 92.4376L57.9532 92.4376L59.7537 91.5668ZM53.6093 78.8626L52.7385 77.0622L50.938 77.933L51.8088 79.7334L53.6093 78.8626ZM60.091 75.7278L61.8915 74.857L61.0207 73.0565L59.2202 73.9273L60.091 75.7278ZM66.2354 88.4319L68.0359 87.5611L68.0358 87.5611L66.2354 88.4319ZM66.5559 88.5435L67.4267 90.3439L67.4267 90.3439L66.5559 88.5435ZM71.3956 86.2028L72.2664 88.0032L72.2664 88.0032L71.3956 86.2028ZM71.5072 85.8822L73.3076 85.0114L73.3051 85.0062L71.5072 85.8822ZM57.063 56.2378L55.2625 57.1086L55.265 57.1138L57.063 56.2378ZM56.7633 56.1694L55.8925 54.369L55.8925 54.369L56.7633 56.1694ZM51.9669 58.4892L51.0961 56.6888L51.096 56.6888L51.9669 58.4892ZM51.8776 58.7457L53.6781 57.8749L53.6781 57.8749L51.8776 58.7457ZM57.5622 70.4992L58.433 72.2997L60.2335 71.4289L59.3627 69.6284L57.5622 70.4992ZM51.0805 73.6341L49.2768 74.4982L50.1442 76.3085L51.9513 75.4345L51.0805 73.6341ZM45.4391 61.8597L47.2428 60.9955L47.2396 60.9889L45.4391 61.8597ZM45.1395 61.7913L44.2687 59.9908L44.2687 59.9908L45.1395 61.7913ZM40.343 64.1111L39.4722 62.3107L39.4722 62.3107L40.343 64.1111ZM40.2105 64.3885L42.0123 63.5203L42.011 63.5177L40.2105 64.3885ZM73.5644 84.8872L71.6379 85.4243L71.686 85.5968L71.7639 85.758L73.5644 84.8872ZM64.5649 52.6095L62.607 53.0176L62.6205 53.0826L62.6384 53.1466L64.5649 52.6095ZM73.8418 85.0197L72.971 83.2192L72.9709 83.2192L73.8418 85.0197ZM78.6382 82.6999L77.7674 80.8994L77.7674 80.8994L78.6382 82.6999ZM78.7498 82.3793L80.6861 81.8785L80.6741 81.8322L80.6599 81.7865L78.7498 82.3793ZM77.6995 78.995L76.8287 77.1945L75.2792 77.9439L75.7893 79.5878L77.6995 78.995ZM83.5762 76.1527L85.2268 75.0233L84.2549 73.6028L82.7054 74.3522L83.5762 76.1527ZM85.5772 79.0772L83.9266 80.2066L83.9536 80.246L83.9824 80.2842L85.5772 79.0772ZM85.8977 79.1888L85.0269 77.3883L85.0269 77.3883L85.8977 79.1888ZM90.6942 76.869L91.565 78.6694L91.565 78.6694L90.6942 76.869ZM90.7626 76.5693L89.1371 77.7346L89.1522 77.7557L89.1678 77.7763L90.7626 76.5693ZM71.2626 49.3701L72.8881 48.2048L72.8453 48.1451L72.7982 48.0887L71.2626 49.3701ZM70.963 49.3018L71.8338 51.1022L71.8338 51.1022L70.963 49.3018ZM64.6973 52.3321L65.5681 54.1326L65.5681 54.1326L64.6973 52.3321ZM76.3275 73.9534L74.412 74.5285L75.0865 76.7752L77.1983 75.7539L76.3275 73.9534ZM80.4758 71.9471L81.3466 73.7475L83.4288 72.7404L82.1317 70.8254L80.4758 71.9471ZM72.3993 60.8705L74.3148 60.2954L74.3001 60.2464L74.283 60.1983L72.3993 60.8705ZM71.7989 59.1881L73.4368 58.0403L69.9153 59.8603L71.7989 59.1881ZM72.8314 60.6615L74.4873 59.5399L74.4784 59.5267L74.4693 59.5137L72.8314 60.6615ZM95.8323 74.3839L94.9615 72.5835L94.9615 72.5835L95.8323 74.3839ZM95.555 74.2515L93.7545 75.1223L93.7545 75.1223L95.555 74.2515ZM100.715 72.0223L101.586 73.8228L101.586 73.8228L100.715 72.0223ZM100.784 71.7227L102.584 70.8518L102.582 70.8487L100.784 71.7227ZM88.8278 47.1131L87.957 45.3126L86.1533 46.1849L87.0288 47.987L88.8278 47.1131ZM94.4885 44.3753L93.6177 42.5748L93.6177 42.5748L94.4885 44.3753ZM94.5568 44.0756L96.3573 43.2048L96.3573 43.2048L94.5568 44.0756ZM92.2161 39.236L90.4156 40.1067L90.4156 40.1068L92.2161 39.236ZM91.9165 39.1676L91.0457 37.3671L91.0457 37.3671L91.9165 39.1676ZM75.4961 47.1093L74.6253 45.3088L74.6253 45.3088L75.4961 47.1093ZM75.4069 47.3657L77.2151 46.5111L77.2112 46.503L77.2073 46.4949L75.4069 47.3657ZM77.7044 52.2263L75.8962 53.081L75.9 53.0891L75.9039 53.0971L77.7044 52.2263ZM78.0249 52.3379L78.8957 54.1384L78.8957 54.1383L78.0249 52.3379ZM83.6424 49.621L85.4429 48.7502L84.5721 46.9497L82.7716 47.8205L83.6424 49.621ZM338.013 182.592C342.024 182.592 345.576 180.622 347.752 177.604L344.507 175.265C343.051 177.284 340.685 178.592 338.013 178.592V182.592ZM222.284 182.592H338.013V178.592H222.284V182.592ZM212.324 177.287C214.476 180.483 218.133 182.592 222.284 182.592V178.592C219.52 178.592 217.082 177.192 215.642 175.053L212.324 177.287ZM27.7644 239.794L214.61 178.069L213.356 174.271L26.5097 235.996L27.7644 239.794ZM12.0017 228.199C11.8639 236.46 19.9198 242.385 27.7644 239.794L26.5097 235.996C21.28 237.724 15.9093 233.773 16.0012 228.266L12.0017 228.199ZM15.5468 15.8079L12.0017 228.199L16.0012 228.266L19.5463 15.8747L15.5468 15.8079ZM31.6877 4.74619C23.934 1.89401 15.6847 7.54741 15.5468 15.8079L19.5463 15.8747C19.6382 10.3677 25.1376 6.5988 30.3068 8.50026L31.6877 4.74619ZM212.866 71.3921L31.6877 4.74619L30.3068 8.50026L211.485 75.1462L212.866 71.3921ZM212.086 71.2471C211.975 71.268 211.863 71.2905 211.753 71.3144L212.598 75.2239C212.672 75.208 212.746 75.1931 212.821 75.1792L212.086 71.2471ZM222.284 63.0536C216.409 63.0536 211.524 67.2737 210.487 72.8474L214.42 73.579C215.111 69.8652 218.371 67.0536 222.284 67.0536V63.0536ZM338.013 63.0536H222.284V67.0536H338.013V63.0536ZM349.765 72.6181C348.638 67.1587 343.807 63.0536 338.013 63.0536V67.0536C341.872 67.0536 345.097 69.7881 345.847 73.4265L349.765 72.6181ZM527.623 4.74619L347.116 71.1453L348.497 74.8993L529.004 8.50026L527.623 4.74619ZM543.764 15.8079C543.626 7.54741 535.377 1.89401 527.623 4.74619L529.004 8.50027C534.173 6.5988 539.672 10.3677 539.764 15.8747L543.764 15.8079ZM547.309 228.199L543.764 15.8079L539.764 15.8747L543.309 228.266L547.309 228.199ZM531.546 239.794C539.391 242.385 547.447 236.46 547.309 228.199L543.309 228.266C543.401 233.773 538.031 237.724 532.801 235.996L531.546 239.794ZM345.502 178.334L531.546 239.794L532.801 235.996L346.757 174.536L345.502 178.334ZM63.2989 149.491C65.7791 150.979 68.5125 151.72 71.4559 151.72V147.72C69.2154 147.72 67.1968 147.165 65.3569 146.061L63.2989 149.491ZM57.501 143.549C58.9557 145.973 60.8785 147.952 63.2542 149.463L65.4017 146.089C63.5533 144.912 62.0682 143.386 60.9309 141.491L57.501 143.549ZM55.3439 135.248C55.3439 138.218 56.05 140.983 57.4748 143.504L60.9571 141.536C59.8858 139.641 59.3439 137.558 59.3439 135.248H55.3439ZM55.3439 131.936V135.248H59.3439V131.936H55.3439ZM57.7039 129.576C57.2756 129.576 56.5871 129.684 56.0197 130.252C55.4524 130.819 55.3439 131.508 55.3439 131.936H59.3439C59.3439 132.124 59.2955 132.633 58.8481 133.08C58.4008 133.528 57.8922 133.576 57.7039 133.576V129.576ZM65.7679 129.576H57.7039V133.576H65.7679V129.576ZM68.0559 131.936C68.0559 131.602 67.9979 130.982 67.5457 130.417C67.0252 129.766 66.3054 129.576 65.7679 129.576V133.576C65.4225 133.576 64.8466 133.446 64.4222 132.915C64.0659 132.47 64.0559 132.03 64.0559 131.936H68.0559ZM68.0559 135.248V131.936H64.0559V135.248H68.0559ZM69.1142 138.001C68.4014 137.223 68.0559 136.339 68.0559 135.248H64.0559C64.0559 137.325 64.7664 139.177 66.1656 140.703L69.1142 138.001ZM71.4559 139.008C70.53 139.008 69.7753 138.691 69.0852 137.97L66.1947 140.734C67.6166 142.221 69.4059 143.008 71.4559 143.008V139.008ZM73.7976 137.929C73.099 138.691 72.3523 139.008 71.4559 139.008V143.008C73.5356 143.008 75.3329 142.173 76.7462 140.631L73.7976 137.929ZM74.8559 135.248C74.8559 136.274 74.522 137.138 73.7976 137.929L76.7462 140.631C78.1338 139.118 78.8559 137.294 78.8559 135.248H74.8559ZM72.4194 132.383C74.4308 133.515 74.8559 134.512 74.8559 135.248H78.8559C78.8559 132.432 76.9771 130.357 74.3805 128.897L72.4194 132.383ZM68.8243 130.37C70.456 131.282 71.654 131.953 72.4194 132.383L74.3805 128.897C73.6099 128.463 72.4078 127.79 70.7756 126.878L68.8243 130.37ZM64.2059 127.772C65.6498 128.59 67.1893 129.456 68.8243 130.37L70.7756 126.878C69.1466 125.968 67.6141 125.106 66.178 124.292L64.2059 127.772ZM57.5448 121.253C59.0411 123.913 61.2866 126.074 64.1862 127.761L66.1977 124.303C63.8172 122.918 62.1267 121.239 61.0311 119.291L57.5448 121.253ZM55.4159 112.352C55.4159 115.574 56.1052 118.541 57.5212 121.209L61.0546 119.335C59.9747 117.299 59.4159 114.986 59.4159 112.352H55.4159ZM57.6553 104.106C56.1499 106.559 55.4159 109.327 55.4159 112.352H59.4159C59.4159 110.001 59.978 107.969 61.0646 106.198L57.6553 104.106ZM63.4545 98.3181C61.048 99.7401 59.1074 101.686 57.6449 104.123L61.0749 106.181C62.2045 104.298 63.6718 102.836 65.4894 101.762L63.4545 98.3181ZM71.4559 96.168C68.6088 96.168 65.9357 96.8844 63.4714 98.3083L65.4725 101.772C67.3281 100.7 69.311 100.168 71.4559 100.168V96.168ZM79.486 98.4074C77.0505 96.9129 74.3588 96.168 71.4559 96.168V100.168C73.641 100.168 75.6053 100.719 77.3939 101.817L79.486 98.4074ZM85.2837 104.223C83.8603 101.76 81.9041 99.8037 79.4405 98.3803L77.4394 101.844C79.2958 102.916 80.7476 104.368 81.8202 106.225L85.2837 104.223ZM87.4959 112.352C87.4959 109.368 86.7585 106.625 85.2566 104.178L81.8473 106.27C82.9374 108.047 83.4959 110.056 83.4959 112.352H87.4959ZM87.4959 118.256V112.352H83.4959V118.256H87.4959ZM85.2079 120.544C85.6122 120.544 86.2828 120.442 86.8382 119.886C87.3935 119.331 87.4959 118.66 87.4959 118.256H83.4959C83.4959 118.044 83.5504 117.517 84.0097 117.058C84.4691 116.598 84.9956 116.544 85.2079 116.544V120.544ZM77.1439 120.544H85.2079V116.544H77.1439V120.544ZM74.8559 118.256C74.8559 118.66 74.9584 119.331 75.5137 119.886C76.0691 120.442 76.7396 120.544 77.1439 120.544V116.544C77.3562 116.544 77.8828 116.598 78.3422 117.058C78.8015 117.517 78.8559 118.044 78.8559 118.256H74.8559ZM74.7841 112.376L74.8561 118.28L78.8558 118.232L78.7838 112.328L74.7841 112.376ZM73.7857 109.662C74.4184 110.295 74.7839 111.13 74.7839 112.352H78.7839C78.7839 110.214 78.0935 108.313 76.6142 106.834L73.7857 109.662ZM71.4559 108.664C72.3439 108.664 73.0893 108.966 73.7857 109.662L76.6141 106.834C75.1986 105.418 73.4479 104.664 71.4559 104.664V108.664ZM69.1142 109.743C69.8129 108.981 70.5596 108.664 71.4559 108.664V104.664C69.3763 104.664 67.579 105.499 66.1656 107.041L69.1142 109.743ZM68.0559 112.352C68.0559 111.328 68.3874 110.504 69.0852 109.774L66.1946 107.01C64.7805 108.488 64.0559 110.304 64.0559 112.352H68.0559ZM68.7513 115.238C68.3313 114.578 68.0559 113.656 68.0559 112.352H64.0559C64.0559 114.216 64.4525 115.934 65.3766 117.386L68.7513 115.238ZM71.687 117.577C70.0461 116.69 69.1608 115.882 68.7513 115.238L65.3766 117.386C66.3111 118.854 67.8738 120.062 69.7849 121.095L71.687 117.577ZM73.0962 118.392C72.4223 118.006 71.984 117.752 71.7649 117.621L69.707 121.051C69.9678 121.208 70.4416 121.482 71.1117 121.864L73.0962 118.392ZM75.422 119.628C74.5613 119.122 73.7368 118.683 72.9497 118.316L71.2582 121.94C71.9111 122.245 72.6226 122.622 73.3939 123.076L75.422 119.628ZM77.5161 120.743C76.887 120.404 76.1627 120.018 75.3437 119.584L73.4722 123.12C74.2852 123.55 75.0009 123.932 75.6197 124.265L77.5161 120.743ZM78.9013 121.488C78.6289 121.306 78.0865 121.027 77.4624 120.715L75.6735 124.293C76.0031 124.458 76.2576 124.588 76.4422 124.686C76.6532 124.797 76.7061 124.832 76.6825 124.816L78.9013 121.488ZM85.1128 126.965C83.5261 124.722 81.3922 122.876 78.7691 121.407L76.8147 124.897C78.9917 126.116 80.6498 127.582 81.8471 129.275L85.1128 126.965ZM87.5679 135.248C87.5679 132.078 86.7838 129.27 85.0992 126.946L81.8607 129.294C82.9601 130.81 83.5679 132.754 83.5679 135.248H87.5679ZM85.3488 143.676C86.8374 141.14 87.5679 138.315 87.5679 135.248H83.5679C83.5679 137.653 83.0025 139.772 81.8991 141.652L85.3488 143.676ZM79.5409 149.563C81.989 148.094 83.9361 146.121 85.3557 143.665L81.8922 141.663C80.8158 143.527 79.3548 145.01 77.4829 146.133L79.5409 149.563ZM71.4559 151.72C74.3848 151.72 77.0916 151.01 79.5294 149.57L77.4945 146.126C75.7083 147.182 73.7111 147.72 71.4559 147.72V151.72ZM95.1357 148.64C95.1357 148.974 95.1937 149.594 95.646 150.159C96.1665 150.81 96.8863 151 97.4237 151V147C97.7692 147 98.345 147.13 98.7695 147.661C99.1258 148.106 99.1357 148.546 99.1357 148.64H95.1357ZM95.1357 107.6V148.64H99.1357V107.6H95.1357ZM87.7757 109.6H97.1357V105.6H87.7757V109.6ZM85.4157 107.24C85.4157 107.668 85.5242 108.357 86.0915 108.924C86.6589 109.492 87.3475 109.6 87.7757 109.6V105.6C87.964 105.6 88.4726 105.648 88.92 106.096C89.3673 106.543 89.4157 107.052 89.4157 107.24H85.4157ZM85.4878 99.1581L85.4158 107.222L89.4157 107.258L89.4877 99.1939L85.4878 99.1581ZM87.7757 96.888C87.3715 96.888 86.7009 96.9904 86.1456 97.5458C85.5902 98.1011 85.4877 98.7717 85.4877 99.176H89.4877C89.4877 99.3883 89.4333 99.9149 88.9739 100.374C88.5146 100.834 87.988 100.888 87.7757 100.888V96.888ZM115.136 96.888H87.7757V100.888H115.136V96.888ZM117.496 99.176C117.496 98.6386 117.306 97.9187 116.655 97.3982C116.09 96.946 115.469 96.888 115.136 96.888V100.888C115.042 100.888 114.602 100.878 114.156 100.522C113.626 100.097 113.496 99.5214 113.496 99.176H117.496ZM117.496 107.24V99.176H113.496V107.24H117.496ZM115.208 109.6C115.745 109.6 116.465 109.41 116.985 108.759C117.438 108.194 117.496 107.574 117.496 107.24H113.496C113.496 107.146 113.506 106.706 113.862 106.261C114.286 105.73 114.862 105.6 115.208 105.6V109.6ZM105.776 109.6H115.208V105.6H105.776V109.6ZM107.848 148.636L107.776 107.596L103.776 107.604L103.848 148.644L107.848 148.636ZM105.56 151C106.097 151 106.817 150.81 107.337 150.159C107.79 149.594 107.848 148.974 107.848 148.64H103.848C103.848 148.546 103.858 148.106 104.214 147.661C104.638 147.13 105.214 147 105.56 147V151ZM97.4237 151H105.56V147H97.4237V151ZM117.052 148.64C117.052 148.974 117.11 149.594 117.562 150.159C118.083 150.81 118.802 151 119.34 151V147C119.685 147 120.261 147.13 120.686 147.661C121.042 148.106 121.052 148.546 121.052 148.64H117.052ZM117.124 99.1731L117.052 148.637L121.052 148.643L121.124 99.1789L117.124 99.1731ZM119.412 96.888C119.008 96.888 118.337 96.9904 117.782 97.5458C117.226 98.1011 117.124 98.7717 117.124 99.176H121.124C121.124 99.3883 121.069 99.9149 120.61 100.374C120.151 100.834 119.624 100.888 119.412 100.888V96.888ZM142.524 96.888H119.412V100.888H142.524V96.888ZM144.812 99.248C144.812 98.9143 144.754 98.2939 144.302 97.7286C143.781 97.0781 143.061 96.888 142.524 96.888V100.888C142.178 100.888 141.603 100.758 141.178 100.227C140.822 99.7821 140.812 99.3417 140.812 99.248H144.812ZM144.812 107.312V99.248H140.812V107.312H144.812ZM142.524 109.6C142.928 109.6 143.599 109.498 144.154 108.942C144.709 108.387 144.812 107.716 144.812 107.312H140.812C140.812 107.1 140.866 106.573 141.326 106.114C141.785 105.654 142.312 105.6 142.524 105.6V109.6ZM127.764 109.6H142.524V105.6H127.764V109.6ZM129.764 118.832V107.6H125.764V118.832H129.764ZM142.524 116.832H127.764V120.832H142.524V116.832ZM144.812 119.12C144.812 118.716 144.709 118.045 144.154 117.49C143.599 116.934 142.928 116.832 142.524 116.832V120.832C142.312 120.832 141.785 120.778 141.326 120.318C140.866 119.859 140.812 119.332 140.812 119.12H144.812ZM144.884 127.238L144.812 119.102L140.812 119.138L140.884 127.274L144.884 127.238ZM142.596 129.544C143 129.544 143.671 129.442 144.226 128.886C144.781 128.331 144.884 127.66 144.884 127.256H140.884C140.884 127.044 140.938 126.517 141.398 126.058C141.857 125.598 142.384 125.544 142.596 125.544V129.544ZM127.764 129.544H142.596V125.544H127.764V129.544ZM129.764 140.144V127.544H125.764V140.144H129.764ZM142.596 138.144H127.764V142.144H142.596V138.144ZM144.884 140.504C144.884 140.17 144.826 139.55 144.374 138.985C143.853 138.334 143.133 138.144 142.596 138.144V142.144C142.25 142.144 141.675 142.014 141.25 141.483C140.894 141.038 140.884 140.598 140.884 140.504H144.884ZM144.884 148.712V140.504H140.884V148.712H144.884ZM142.596 151C143 151 143.671 150.898 144.226 150.342C144.781 149.787 144.884 149.116 144.884 148.712H140.884C140.884 148.5 140.938 147.973 141.398 147.514C141.857 147.054 142.384 147 142.596 147V151ZM119.34 151H142.596V147H119.34V151ZM147.286 148.64C147.286 149.068 147.395 149.757 147.962 150.324C148.529 150.892 149.218 151 149.646 151V147C149.835 147 150.343 147.048 150.79 147.496C151.238 147.943 151.286 148.452 151.286 148.64H147.286ZM147.43 99.1702L147.286 148.634L151.286 148.646L151.43 99.1818L147.43 99.1702ZM149.718 96.888C149.314 96.888 148.643 96.9904 148.088 97.5458C147.533 98.1012 147.43 98.7717 147.43 99.176H151.43C151.43 99.3882 151.376 99.9148 150.916 100.374C150.457 100.834 149.93 100.888 149.718 100.888V96.888ZM163.542 96.888H149.718V100.888H163.542V96.888ZM175.435 101.545C172.441 98.3817 168.393 96.888 163.542 96.888V100.888C167.524 100.888 170.436 102.082 172.53 104.295L175.435 101.545ZM179.87 113.864C179.87 108.866 178.453 104.675 175.422 101.532L172.543 104.308C174.695 106.541 175.87 109.646 175.87 113.864H179.87ZM177.615 123.668C179.145 120.827 179.87 117.536 179.87 113.864H175.87C175.87 117.008 175.252 119.621 174.093 121.772L177.615 123.668ZM171.655 130.178C174.144 128.629 176.125 126.435 177.615 123.668L174.093 121.772C172.895 123.997 171.373 125.643 169.542 126.782L171.655 130.178ZM163.542 132.496C166.46 132.496 169.178 131.719 171.655 130.178L169.542 126.782C167.699 127.929 165.713 128.496 163.542 128.496V132.496ZM158.07 132.496H163.542V128.496H158.07V132.496ZM160.07 148.64V130.496H156.07V148.64H160.07ZM157.71 151C158.139 151 158.827 150.892 159.394 150.324C159.962 149.757 160.07 149.068 160.07 148.64H156.07C156.07 148.452 156.119 147.943 156.566 147.496C157.013 147.048 157.522 147 157.71 147V151ZM149.646 151H157.71V147H149.646V151ZM163.542 119.784H158.07V123.784H163.542V119.784ZM165.915 118.407C165.112 119.454 164.339 119.784 163.542 119.784V123.784C165.817 123.784 167.684 122.674 169.089 120.841L165.915 118.407ZM167.23 113.864C167.23 115.886 166.74 117.342 165.921 118.4L169.084 120.848C170.569 118.93 171.23 116.546 171.23 113.864H167.23ZM166.187 110.542C166.836 111.315 167.23 112.367 167.23 113.864H171.23C171.23 111.617 170.617 109.597 169.25 107.97L166.187 110.542ZM163.542 109.456C164.816 109.456 165.612 109.858 166.187 110.542L169.25 107.97C167.808 106.254 165.821 105.456 163.542 105.456V109.456ZM158.097 109.528L163.569 109.456L163.516 105.456L158.044 105.528L158.097 109.528ZM160.07 121.784V107.528H156.07V121.784H160.07ZM180.193 148.64C180.193 148.974 180.25 149.594 180.703 150.159C181.223 150.81 181.943 151 182.48 151V147C182.826 147 183.402 147.13 183.826 147.661C184.183 148.106 184.193 148.546 184.193 148.64H180.193ZM180.264 99.1731L180.193 148.637L184.193 148.643L184.264 99.1789L180.264 99.1731ZM182.624 96.888C182.291 96.888 181.67 96.946 181.105 97.3982C180.455 97.9187 180.264 98.6386 180.264 99.176H184.264C184.264 99.5214 184.134 100.097 183.604 100.522C183.159 100.878 182.718 100.888 182.624 100.888V96.888ZM190.617 96.888H182.624V100.888H190.617V96.888ZM192.977 99.176C192.977 98.6385 192.786 97.9186 192.136 97.3982C191.571 96.946 190.95 96.888 190.617 96.888V100.888C190.523 100.888 190.082 100.878 189.637 100.522C189.107 100.097 188.977 99.5215 188.977 99.176H192.977ZM192.904 118.767L192.976 99.1833L188.977 99.1686L188.905 118.753L192.904 118.767ZM201.704 116.76H190.904V120.76H201.704V116.76ZM199.704 99.176V118.76H203.704V99.176H199.704ZM201.992 96.888C201.588 96.888 200.918 96.9904 200.362 97.5458C199.807 98.1012 199.704 98.7717 199.704 99.176H203.704C203.704 99.3882 203.65 99.9148 203.191 100.374C202.731 100.834 202.205 100.888 201.992 100.888V96.888ZM209.984 96.888H201.992V100.888H209.984V96.888ZM212.344 99.176C212.344 98.6386 212.154 97.9187 211.504 97.3982C210.939 96.946 210.318 96.888 209.984 96.888V100.888C209.891 100.888 209.45 100.878 209.005 100.522C208.475 100.097 208.344 99.5214 208.344 99.176H212.344ZM212.488 148.634L212.344 99.1702L208.345 99.1818L208.489 148.646L212.488 148.634ZM210.128 151C210.557 151 211.245 150.892 211.813 150.324C212.38 149.757 212.488 149.068 212.488 148.64H208.488C208.488 148.452 208.537 147.943 208.984 147.496C209.432 147.048 209.94 147 210.128 147V151ZM202.064 151H210.128V147H202.064V151ZM199.704 148.64C199.704 149.068 199.813 149.757 200.38 150.324C200.948 150.892 201.636 151 202.064 151V147C202.253 147 202.761 147.048 203.209 147.496C203.656 147.943 203.704 148.452 203.704 148.64H199.704ZM199.704 127.472V148.64H203.704V127.472H199.704ZM190.904 129.472H201.704V125.472H190.904V129.472ZM192.904 148.64V127.472H188.904V148.64H192.904ZM190.617 151C191.154 151 191.874 150.81 192.394 150.159C192.847 149.594 192.904 148.974 192.904 148.64H188.904C188.904 148.546 188.914 148.106 189.271 147.661C189.695 147.13 190.271 147 190.617 147V151ZM182.48 151H190.617V147H182.48V151ZM214.364 148.64C214.364 148.974 214.422 149.594 214.875 150.159C215.395 150.81 216.115 151 216.652 151V147C216.998 147 217.574 147.13 217.998 147.661C218.354 148.106 218.364 148.546 218.364 148.64H214.364ZM214.436 99.1731L214.364 148.637L218.364 148.643L218.436 99.1789L214.436 99.1731ZM216.724 96.888C216.32 96.888 215.65 96.9904 215.094 97.5458C214.539 98.1011 214.436 98.7717 214.436 99.176H218.436C218.436 99.3883 218.382 99.9149 217.923 100.374C217.463 100.834 216.937 100.888 216.724 100.888V96.888ZM239.836 96.888H216.724V100.888H239.836V96.888ZM242.124 99.248C242.124 98.9143 242.066 98.2939 241.614 97.7286C241.094 97.0781 240.374 96.888 239.836 96.888V100.888C239.491 100.888 238.915 100.758 238.491 100.227C238.134 99.7821 238.124 99.3417 238.124 99.248H242.124ZM242.124 107.312V99.248H238.124V107.312H242.124ZM239.836 109.6C240.241 109.6 240.911 109.498 241.467 108.942C242.022 108.387 242.124 107.716 242.124 107.312H238.124C238.124 107.1 238.179 106.573 238.638 106.114C239.097 105.654 239.624 105.6 239.836 105.6V109.6ZM225.076 109.6H239.836V105.6H225.076V109.6ZM227.076 118.832V107.6H223.076V118.832H227.076ZM239.836 116.832H225.076V120.832H239.836V116.832ZM242.124 119.12C242.124 118.716 242.022 118.045 241.467 117.49C240.911 116.934 240.241 116.832 239.836 116.832V120.832C239.624 120.832 239.098 120.778 238.638 120.318C238.179 119.859 238.124 119.332 238.124 119.12H242.124ZM242.196 127.238L242.124 119.102L238.124 119.138L238.196 127.274L242.196 127.238ZM239.908 129.544C240.313 129.544 240.983 129.442 241.539 128.886C242.094 128.331 242.196 127.66 242.196 127.256H238.196C238.196 127.044 238.251 126.517 238.71 126.058C239.17 125.598 239.696 125.544 239.908 125.544V129.544ZM225.076 129.544H239.908V125.544H225.076V129.544ZM227.076 140.144V127.544H223.076V140.144H227.076ZM239.908 138.144H225.076V142.144H239.908V138.144ZM242.196 140.504C242.196 140.17 242.138 139.55 241.686 138.985C241.166 138.334 240.446 138.144 239.908 138.144V142.144C239.563 142.144 238.987 142.014 238.563 141.483C238.206 141.038 238.196 140.598 238.196 140.504H242.196ZM242.196 148.712V140.504H238.196V148.712H242.196ZM239.908 151C240.313 151 240.983 150.898 241.539 150.342C242.094 149.787 242.196 149.116 242.196 148.712H238.196C238.196 148.5 238.251 147.973 238.71 147.514C239.17 147.054 239.696 147 239.908 147V151ZM216.652 151H239.908V147H216.652V151ZM244.671 148.496C244.671 149.047 244.84 149.804 245.498 150.379C246.104 150.91 246.807 151 247.247 151V147C247.302 147 247.718 147.006 248.132 147.369C248.597 147.776 248.671 148.281 248.671 148.496H244.671ZM244.599 99.4669L244.671 148.499L248.671 148.493L248.599 99.4611L244.599 99.4669ZM247.175 96.888C246.674 96.888 245.932 97.0144 245.329 97.6178C244.725 98.2212 244.599 98.9637 244.599 99.464H248.599C248.599 99.5802 248.568 100.035 248.157 100.446C247.746 100.858 247.291 100.888 247.175 100.888V96.888ZM253.655 96.888H247.175V100.888H253.655V96.888ZM267.661 126.468L255.493 98.0996L251.817 99.6764L263.985 128.044L267.661 126.468ZM263.463 99.4899L263.823 127.282L267.823 127.23L267.463 99.4381L263.463 99.4899ZM266.111 96.888C265.641 96.888 264.915 96.9873 264.296 97.5372C263.633 98.1269 263.463 98.8987 263.463 99.464H267.463C267.463 99.6453 267.401 100.129 266.953 100.527C266.551 100.885 266.149 100.888 266.111 100.888V96.888ZM273.239 96.888H266.111V100.888H273.239V96.888ZM275.671 99.464C275.671 99.0797 275.609 98.4268 275.163 97.832C274.635 97.129 273.871 96.888 273.239 96.888V100.888C273.091 100.888 272.867 100.863 272.615 100.752C272.353 100.635 272.128 100.453 271.963 100.232C271.661 99.8292 271.671 99.4643 271.671 99.464H275.671ZM275.743 148.565L275.671 99.4611L271.671 99.4669L271.743 148.571L275.743 148.565ZM273.383 151C273.917 151 274.648 150.822 275.189 150.172C275.673 149.592 275.743 148.94 275.743 148.568H271.743C271.743 148.484 271.753 148.048 272.116 147.612C272.538 147.106 273.089 147 273.383 147V151ZM267.047 151H273.383V147H267.047V151ZM252.781 123.355L265.237 149.851L268.857 148.149L256.401 121.653L252.781 123.355ZM257.094 148.385L256.59 122.465L252.591 122.543L253.095 148.463L257.094 148.385ZM254.447 151C254.917 151 255.643 150.901 256.261 150.351C256.925 149.761 257.095 148.989 257.095 148.424H253.095C253.095 148.243 253.157 147.759 253.604 147.361C254.007 147.003 254.409 147 254.447 147V151ZM247.247 151H254.447V147H247.247V151ZM288.685 148.64C288.685 148.974 288.743 149.594 289.195 150.159C289.715 150.81 290.435 151 290.973 151V147C291.318 147 291.894 147.13 292.318 147.661C292.675 148.106 292.685 148.546 292.685 148.64H288.685ZM288.829 99.1702L288.685 148.634L292.685 148.646L292.829 99.1818L288.829 99.1702ZM291.117 96.888C290.712 96.888 290.042 96.9904 289.487 97.5457C288.931 98.1011 288.829 98.7717 288.829 99.176H292.829C292.829 99.3883 292.774 99.9149 292.315 100.374C291.855 100.834 291.329 100.888 291.117 100.888V96.888ZM304.941 96.888H291.117V100.888H304.941V96.888ZM313.341 99.2059C310.84 97.6496 308.021 96.888 304.941 96.888V100.888C307.333 100.888 309.409 101.47 311.228 102.602L313.341 99.2059ZM319.128 105.087C317.709 102.631 315.762 100.658 313.314 99.189L311.256 102.619C313.128 103.742 314.589 105.225 315.665 107.089L319.128 105.087ZM321.269 113.144C321.269 110.256 320.556 107.558 319.128 105.087L315.665 107.089C316.734 108.938 317.269 110.944 317.269 113.144H321.269ZM319.588 119.855C320.71 117.78 321.269 115.532 321.269 113.144H317.269C317.269 114.884 316.868 116.476 316.069 117.953L319.588 119.855ZM315.814 124.746C317.34 123.446 318.597 121.787 319.608 119.818L316.05 117.99C315.237 119.573 314.286 120.794 313.22 121.702L315.814 124.746ZM319.6 127.272C318.732 125.211 317.507 123.386 315.931 121.81L313.102 124.638C314.311 125.846 315.245 127.237 315.913 128.824L319.6 127.272ZM320.909 133.808C320.909 131.531 320.473 129.346 319.6 127.272L315.913 128.824C316.576 130.398 316.909 132.053 316.909 133.808H320.909ZM318.62 142.448C320.151 139.824 320.909 136.93 320.909 133.808H316.909C316.909 136.254 316.323 138.448 315.165 140.432L318.62 142.448ZM312.455 148.696C315.043 147.132 317.106 145.044 318.62 142.448L315.165 140.432C313.991 142.444 312.407 144.052 310.386 145.272L312.455 148.696ZM303.861 151C306.982 151 309.86 150.242 312.444 148.702L310.397 145.266C308.469 146.414 306.307 147 303.861 147V151ZM290.973 151H303.861V147H290.973V151ZM304.941 116.76H299.469V120.76H304.941V116.76ZM307.468 115.715C306.879 116.388 306.107 116.76 304.941 116.76V120.76C307.134 120.76 309.05 119.98 310.478 118.349L307.468 115.715ZM308.557 113.144C308.557 113.978 308.257 114.818 307.471 115.711L310.474 118.353C311.801 116.846 312.557 115.094 312.557 113.144H308.557ZM307.486 110.598C308.222 111.334 308.557 112.148 308.557 113.144H312.557C312.557 111.068 311.787 109.242 310.315 107.77L307.486 110.598ZM304.941 109.456C305.908 109.456 306.713 109.792 307.457 110.568L310.345 107.8C308.88 106.272 307.045 105.456 304.941 105.456V109.456ZM299.469 109.456H304.941V105.456H299.469V109.456ZM301.469 118.76V107.456H297.469V118.76H301.469ZM303.861 138.216H299.397V142.216H303.861V138.216ZM306.91 136.93C306.029 137.812 305.046 138.216 303.861 138.216V142.216C306.132 142.216 308.125 141.372 309.739 139.758L306.91 136.93ZM308.197 133.808C308.197 134.995 307.79 136.016 306.884 136.957L309.765 139.731C311.356 138.08 312.197 136.077 312.197 133.808H308.197ZM306.91 130.758C307.792 131.64 308.197 132.623 308.197 133.808H312.197C312.197 131.537 311.353 129.544 309.739 127.93L306.91 130.758ZM303.861 129.472C305.046 129.472 306.029 129.876 306.91 130.758L309.739 127.93C308.125 126.316 306.132 125.472 303.861 125.472V129.472ZM299.469 129.472H303.861V125.472H299.469V129.472ZM301.397 140.227L301.469 127.483L297.469 127.461L297.397 140.205L301.397 140.227ZM329.246 149.491C331.726 150.979 334.46 151.72 337.403 151.72V147.72C335.163 147.72 333.144 147.165 331.304 146.061L329.246 149.491ZM323.448 143.549C324.903 145.973 326.826 147.952 329.201 149.463L331.349 146.089C329.501 144.912 328.015 143.386 326.878 141.491L323.448 143.549ZM321.219 135.248C321.219 138.232 321.956 141.008 323.438 143.532L326.888 141.508C325.778 139.616 325.219 137.544 325.219 135.248H321.219ZM321.291 112.418L321.219 135.242L325.219 135.254L325.291 112.43L321.291 112.418ZM323.431 104.223C321.997 106.705 321.291 109.454 321.291 112.424H325.291C325.291 110.114 325.833 108.062 326.895 106.225L323.431 104.223ZM329.318 98.325C326.877 99.7899 324.913 101.754 323.448 104.195L326.878 106.253C328.005 104.374 329.498 102.882 331.376 101.755L329.318 98.325ZM337.403 96.096C334.5 96.096 331.792 96.8406 329.318 98.325L331.376 101.755C333.222 100.647 335.218 100.096 337.403 100.096V96.096ZM345.505 98.3354C343.064 96.8371 340.347 96.096 337.403 96.096V100.096C339.644 100.096 341.631 100.651 343.413 101.745L345.505 98.3354ZM351.231 104.223C349.818 101.777 347.903 99.8066 345.505 98.3354L343.413 101.745C345.24 102.865 346.685 104.351 347.767 106.225L351.231 104.223ZM353.443 112.424C353.443 109.44 352.706 106.681 351.214 104.195L347.784 106.253C348.885 108.087 349.443 110.128 349.443 112.424H353.443ZM353.515 135.242L353.443 112.418L349.443 112.43L349.515 135.254L353.515 135.242ZM351.296 143.532C352.778 141.008 353.515 138.232 353.515 135.248H349.515C349.515 137.544 348.956 139.616 347.846 141.508L351.296 143.532ZM345.516 149.474C347.949 147.96 349.887 145.971 351.303 143.521L347.839 141.519C346.759 143.389 345.289 144.904 343.403 146.078L345.516 149.474ZM337.403 151.72C340.347 151.72 343.064 150.979 345.505 149.481L343.413 146.071C341.631 147.165 339.644 147.72 337.403 147.72V151.72ZM339.673 137.929C338.96 138.707 338.231 139.008 337.403 139.008V143.008C339.455 143.008 341.223 142.157 342.621 140.631L339.673 137.929ZM340.803 135.248C340.803 136.184 340.475 137.057 339.675 137.926L342.619 140.634C344.027 139.103 344.803 137.287 344.803 135.248H340.803ZM340.731 112.43L340.803 135.254L344.803 135.242L344.731 112.418L340.731 112.43ZM339.742 109.741C340.392 110.453 340.731 111.306 340.731 112.424H344.731C344.731 110.374 344.062 108.539 342.696 107.043L339.742 109.741ZM337.403 108.736C338.395 108.736 339.125 109.064 339.742 109.741L342.696 107.043C341.298 105.512 339.484 104.736 337.403 104.736V108.736ZM335.032 109.774C335.722 109.053 336.477 108.736 337.403 108.736V104.736C335.353 104.736 333.564 105.523 332.142 107.01L335.032 109.774ZM334.003 112.424C334.003 111.268 334.357 110.45 335.001 109.806L332.173 106.978C330.705 108.445 330.003 110.316 330.003 112.424H334.003ZM334.003 135.248V112.424H330.003V135.248H334.003ZM335.061 138.001C334.349 137.223 334.003 136.339 334.003 135.248H330.003C330.003 137.325 330.714 139.177 332.113 140.703L335.061 138.001ZM337.403 139.008C336.477 139.008 335.722 138.691 335.032 137.97L332.142 140.734C333.564 142.221 335.353 143.008 337.403 143.008V139.008ZM360.448 149.032C360.517 149.376 360.684 149.887 361.121 150.324C361.607 150.81 362.219 151 362.77 151V147C363.128 147 363.584 147.13 363.95 147.496C364.267 147.813 364.35 148.144 364.371 148.248L360.448 149.032ZM351.943 99.5146L360.439 148.979L364.381 148.301L355.885 98.8374L351.943 99.5146ZM354.13 96.888C353.785 96.888 352.927 96.9664 352.332 97.7601C351.754 98.5302 351.896 99.3534 351.973 99.6611L355.854 98.6909C355.883 98.8066 356.037 99.4858 355.532 100.16C355.008 100.858 354.282 100.888 354.13 100.888V96.888ZM362.194 96.888H354.13V100.888H362.194V96.888ZM364.494 98.6909C364.394 98.2932 364.166 97.7897 363.677 97.3983C363.181 97.0018 362.628 96.888 362.194 96.888V100.888C361.951 100.888 361.554 100.822 361.178 100.522C360.809 100.226 360.665 99.8668 360.613 99.6611L364.494 98.6909ZM369.142 131.44L364.534 98.8956L360.573 99.4564L365.181 132L369.142 131.44ZM369.935 98.887L365.183 131.431L369.141 132.009L373.893 99.465L369.935 98.887ZM372.346 96.888C371.978 96.888 371.453 96.9593 370.948 97.2959C370.403 97.6596 370.099 98.1865 369.973 98.6912L373.854 99.6608C373.776 99.9735 373.569 100.356 373.167 100.624C372.806 100.865 372.473 100.888 372.346 100.888V96.888ZM378.826 96.888H372.346V100.888H378.826V96.888ZM381.126 98.6912C381.027 98.2934 380.798 97.7898 380.309 97.3983C379.813 97.0017 379.26 96.888 378.826 96.888V100.888C378.583 100.888 378.186 100.822 377.81 100.522C377.441 100.226 377.297 99.8666 377.245 99.6608L381.126 98.6912ZM385.845 131.435L381.165 98.8913L377.206 99.4607L381.886 132.005L385.845 131.435ZM386.566 98.8913L381.886 131.435L385.845 132.005L390.525 99.4607L386.566 98.8913ZM388.906 96.888C388.471 96.888 387.918 97.0017 387.422 97.3982C386.933 97.7897 386.705 98.2932 386.605 98.6909L390.486 99.6611C390.434 99.8668 390.29 100.226 389.921 100.522C389.545 100.822 389.148 100.888 388.906 100.888V96.888ZM396.898 96.888H388.906V100.888H396.898V96.888ZM399.126 99.6611C399.235 99.2244 399.315 98.2968 398.564 97.5458C397.94 96.9219 397.173 96.888 396.898 96.888V100.888C396.862 100.888 396.263 100.902 395.735 100.374C395.08 99.7192 395.184 98.9356 395.245 98.6909L399.126 99.6611ZM390.588 148.981L399.156 99.5173L395.215 98.8346L386.647 148.299L390.588 148.981ZM389.816 150.342C390.026 150.133 390.241 149.866 390.406 149.535L386.829 147.745C386.898 147.606 386.97 147.531 386.988 147.514L389.816 150.342ZM389.152 150.789L389.296 150.717L387.507 147.139L387.363 147.211L389.152 150.789ZM379.546 151H388.258V147H379.546V151ZM377.329 149.383C377.47 149.737 378.061 151 379.546 151V147C380.098 147 380.519 147.253 380.762 147.496C380.967 147.701 381.037 147.884 381.043 147.897L377.329 149.383ZM373.533 123.073L377.205 148.921L381.166 148.359L377.494 122.511L373.533 123.073ZM373.822 148.921L377.494 123.073L373.533 122.511L369.861 148.359L373.822 148.921ZM371.482 151C372.032 151 372.644 150.81 373.13 150.324C373.567 149.887 373.734 149.376 373.803 149.032L369.88 148.248C369.901 148.144 369.984 147.813 370.301 147.496C370.667 147.13 371.123 147 371.482 147V151ZM362.77 151H371.482V147H362.77V151ZM399.427 148.64C399.427 148.974 399.485 149.594 399.937 150.159C400.458 150.81 401.178 151 401.715 151V147C402.06 147 402.636 147.13 403.061 147.661C403.417 148.106 403.427 148.546 403.427 148.64H399.427ZM399.499 99.1731L399.427 148.637L403.427 148.643L403.499 99.1789L399.499 99.1731ZM401.787 96.888C401.383 96.888 400.712 96.9904 400.157 97.5458C399.601 98.1011 399.499 98.7717 399.499 99.176H403.499C403.499 99.3883 403.444 99.9149 402.985 100.374C402.526 100.834 401.999 100.888 401.787 100.888V96.888ZM424.899 96.888H401.787V100.888H424.899V96.888ZM427.187 99.248C427.187 98.9144 427.129 98.294 426.677 97.7286C426.156 97.078 425.436 96.888 424.899 96.888V100.888C424.554 100.888 423.978 100.758 423.553 100.227C423.197 99.782 423.187 99.3416 423.187 99.248H427.187ZM427.187 107.312V99.248H423.187V107.312H427.187ZM424.899 109.6C425.303 109.6 425.974 109.498 426.529 108.942C427.084 108.387 427.187 107.716 427.187 107.312H423.187C423.187 107.1 423.241 106.573 423.701 106.114C424.16 105.654 424.687 105.6 424.899 105.6V109.6ZM410.139 109.6H424.899V105.6H410.139V109.6ZM412.139 118.832V107.6H408.139V118.832H412.139ZM424.899 116.832H410.139V120.832H424.899V116.832ZM427.187 119.12C427.187 118.716 427.084 118.045 426.529 117.49C425.974 116.934 425.303 116.832 424.899 116.832V120.832C424.687 120.832 424.16 120.778 423.701 120.318C423.241 119.859 423.187 119.332 423.187 119.12H427.187ZM427.259 127.238L427.187 119.102L423.187 119.138L423.259 127.274L427.259 127.238ZM424.971 129.544C425.375 129.544 426.046 129.442 426.601 128.886C427.156 128.331 427.259 127.66 427.259 127.256H423.259C423.259 127.044 423.313 126.517 423.773 126.058C424.232 125.598 424.759 125.544 424.971 125.544V129.544ZM410.139 129.544H424.971V125.544H410.139V129.544ZM412.139 140.144V127.544H408.139V140.144H412.139ZM424.971 138.144H410.139V142.144H424.971V138.144ZM427.259 140.504C427.259 140.17 427.201 139.55 426.749 138.985C426.228 138.334 425.508 138.144 424.971 138.144V142.144C424.625 142.144 424.05 142.014 423.625 141.483C423.269 141.038 423.259 140.598 423.259 140.504H427.259ZM427.259 148.712V140.504H423.259V148.712H427.259ZM424.971 151C425.375 151 426.046 150.898 426.601 150.342C427.156 149.787 427.259 149.116 427.259 148.712H423.259C423.259 148.5 423.313 147.973 423.773 147.514C424.232 147.054 424.759 147 424.971 147V151ZM401.715 151H424.971V147H401.715V151ZM429.661 148.64C429.661 148.974 429.719 149.594 430.171 150.159C430.692 150.81 431.412 151 431.949 151V147C432.295 147 432.871 147.13 433.295 147.661C433.651 148.106 433.661 148.546 433.661 148.64H429.661ZM429.805 99.1702L429.661 148.634L433.661 148.646L433.805 99.1818L429.805 99.1702ZM432.093 96.888C431.689 96.888 431.018 96.9904 430.463 97.5457C429.908 98.1011 429.805 98.7717 429.805 99.176H433.805C433.805 99.3883 433.751 99.9149 433.291 100.374C432.832 100.834 432.305 100.888 432.093 100.888V96.888ZM446.637 96.888H432.093V100.888H446.637V96.888ZM454.794 99.117C452.314 97.6289 449.581 96.888 446.637 96.888V100.888C448.878 100.888 450.896 101.443 452.736 102.547L454.794 99.117ZM460.736 104.915C459.261 102.456 457.256 100.508 454.749 99.0909L452.781 102.573C454.69 103.652 456.189 105.112 457.306 106.973L460.736 104.915ZM462.965 113.144C462.965 110.119 462.231 107.351 460.726 104.898L457.317 106.99C458.403 108.761 458.965 110.793 458.965 113.144H462.965ZM462.051 118.657C462.672 116.964 462.965 115.118 462.965 113.144H458.965C458.965 114.722 458.731 116.092 458.296 117.279L462.051 118.657ZM459.929 122.73C460.766 121.558 461.466 120.199 462.043 118.677L458.303 117.259C457.824 118.521 457.276 119.562 456.674 120.406L459.929 122.73ZM457.638 125.264C458.382 124.644 459.137 123.788 459.901 122.768L456.701 120.368C456.026 121.268 455.484 121.852 455.077 122.192L457.638 125.264ZM462.245 133.88C462.245 129.5 460.768 125.639 457.844 122.39L454.871 125.066C457.131 127.577 458.245 130.484 458.245 133.88H462.245ZM462.317 148.63L462.245 133.87L458.245 133.89L458.317 148.65L462.317 148.63ZM459.957 151C460.386 151 461.074 150.892 461.641 150.324C462.209 149.757 462.317 149.068 462.317 148.64H458.317C458.317 148.452 458.366 147.943 458.813 147.496C459.26 147.048 459.769 147 459.957 147V151ZM451.821 151H459.957V147H451.821V151ZM449.533 148.784C449.533 149.344 449.75 150.055 450.405 150.546C450.952 150.956 451.533 151 451.821 151V147C451.918 147 452.354 147.008 452.805 147.346C453.364 147.765 453.533 148.368 453.533 148.784H449.533ZM449.533 133.88V148.784H453.533V133.88H449.533ZM448.247 130.83C449.129 131.712 449.533 132.695 449.533 133.88H453.533C453.533 131.609 452.69 129.616 451.075 128.002L448.247 130.83ZM445.197 129.472C446.42 129.472 447.375 129.89 448.194 130.775L451.129 128.057C449.548 126.35 447.527 125.472 445.197 125.472V129.472ZM440.445 129.472H445.197V125.472H440.445V129.472ZM442.373 148.647L442.445 127.479L438.445 127.465L438.373 148.633L442.373 148.647ZM440.085 151C440.623 151 441.342 150.81 441.863 150.159C442.315 149.594 442.373 148.974 442.373 148.64H438.373C438.373 148.546 438.383 148.106 438.74 147.661C439.164 147.13 439.74 147 440.085 147V151ZM431.949 151H440.085V147H431.949V151ZM446.637 116.832H440.445V120.832H446.637V116.832ZM449.213 115.732C448.404 116.508 447.57 116.832 446.637 116.832V120.832C448.681 120.832 450.486 120.052 451.981 118.62L449.213 115.732ZM450.325 113.144C450.325 114.178 449.975 115.002 449.213 115.732L451.981 118.62C453.523 117.142 454.325 115.278 454.325 113.144H450.325ZM449.213 110.628C449.989 111.371 450.325 112.177 450.325 113.144H454.325C454.325 111.039 453.51 109.205 451.981 107.74L449.213 110.628ZM446.637 109.528C447.633 109.528 448.447 109.862 449.183 110.598L452.011 107.77C450.539 106.298 448.713 105.528 446.637 105.528V109.528ZM440.445 109.528H446.637V105.528H440.445V109.528ZM442.445 118.832V107.528H438.445V118.832H442.445ZM470.268 149.491C472.748 150.979 475.481 151.72 478.425 151.72V147.72C476.184 147.72 474.166 147.165 472.326 146.061L470.268 149.491ZM464.47 143.549C465.924 145.974 467.847 147.952 470.223 149.463L472.37 146.089C470.522 144.912 469.037 143.386 467.9 141.491L464.47 143.549ZM462.313 135.248C462.313 138.218 463.019 140.983 464.444 143.504L467.926 141.536C466.855 139.641 466.313 137.558 466.313 135.248H462.313ZM462.313 131.936V135.248H466.313V131.936H462.313ZM464.673 129.576C464.244 129.576 463.556 129.684 462.988 130.252C462.421 130.819 462.313 131.508 462.313 131.936H466.313C466.313 132.124 466.264 132.633 465.817 133.08C465.37 133.528 464.861 133.576 464.673 133.576V129.576ZM472.737 129.576H464.673V133.576H472.737V129.576ZM475.025 131.936C475.025 131.602 474.967 130.982 474.514 130.417C473.994 129.766 473.274 129.576 472.737 129.576V133.576C472.391 133.576 471.815 133.446 471.391 132.915C471.035 132.47 471.025 132.03 471.025 131.936H475.025ZM475.025 135.248V131.936H471.025V135.248H475.025ZM476.083 138.001C475.37 137.223 475.025 136.339 475.025 135.248H471.025C471.025 137.325 471.735 139.177 473.134 140.703L476.083 138.001ZM478.425 139.008C477.499 139.008 476.744 138.691 476.054 137.97L473.163 140.734C474.585 142.221 476.375 143.008 478.425 143.008V139.008ZM480.766 137.929C480.068 138.691 479.321 139.008 478.425 139.008V143.008C480.504 143.008 482.302 142.173 483.715 140.631L480.766 137.929ZM481.825 135.248C481.825 136.274 481.491 137.138 480.766 137.929L483.715 140.631C485.103 139.118 485.825 137.294 485.825 135.248H481.825ZM479.388 132.383C481.4 133.515 481.825 134.512 481.825 135.248H485.825C485.825 132.432 483.946 130.357 481.349 128.897L479.388 132.383ZM475.793 130.37C477.425 131.282 478.623 131.953 479.388 132.383L481.349 128.897C480.579 128.463 479.377 127.79 477.744 126.878L475.793 130.37ZM471.175 127.772C472.619 128.59 474.158 129.456 475.793 130.37L477.744 126.878C476.115 125.968 474.583 125.106 473.147 124.292L471.175 127.772ZM464.514 121.253C466.01 123.913 468.255 126.074 471.155 127.761L473.166 124.303C470.786 122.918 469.095 121.239 468 119.291L464.514 121.253ZM462.385 112.352C462.385 115.574 463.074 118.541 464.49 121.209L468.023 119.335C466.943 117.299 466.385 114.986 466.385 112.352H462.385ZM464.624 104.106C463.119 106.559 462.385 109.327 462.385 112.352H466.385C466.385 110.001 466.947 107.969 468.033 106.198L464.624 104.106ZM470.423 98.3181C468.017 99.7401 466.076 101.686 464.614 104.123L468.044 106.181C469.173 104.298 470.641 102.836 472.458 101.762L470.423 98.3181ZM478.425 96.168C475.578 96.168 472.904 96.8844 470.44 98.3083L472.441 101.772C474.297 100.7 476.28 100.168 478.425 100.168V96.168ZM486.455 98.4074C484.019 96.9129 481.328 96.168 478.425 96.168V100.168C480.61 100.168 482.574 100.719 484.363 101.817L486.455 98.4074ZM492.252 104.223C490.829 101.76 488.873 99.8037 486.409 98.3803L484.408 101.844C486.265 102.916 487.716 104.368 488.789 106.225L492.252 104.223ZM494.465 112.352C494.465 109.368 493.727 106.625 492.225 104.178L488.816 106.27C489.906 108.047 490.465 110.056 490.465 112.352H494.465ZM494.465 118.256V112.352H490.465V118.256H494.465ZM492.177 120.544C492.581 120.544 493.252 120.442 493.807 119.886C494.362 119.331 494.465 118.66 494.465 118.256H490.465C490.465 118.044 490.519 117.517 490.978 117.058C491.438 116.598 491.964 116.544 492.177 116.544V120.544ZM484.113 120.544H492.177V116.544H484.113V120.544ZM481.825 118.256C481.825 118.66 481.927 119.331 482.482 119.886C483.038 120.442 483.708 120.544 484.113 120.544V116.544C484.325 116.544 484.852 116.598 485.311 117.058C485.77 117.517 485.825 118.044 485.825 118.256H481.825ZM481.753 112.376L481.825 118.28L485.825 118.232L485.753 112.328L481.753 112.376ZM480.754 109.662C481.387 110.295 481.753 111.13 481.753 112.352H485.753C485.753 110.214 485.062 108.313 483.583 106.834L480.754 109.662ZM478.425 108.664C479.313 108.664 480.058 108.966 480.755 109.662L483.583 106.834C482.167 105.418 480.417 104.664 478.425 104.664V108.664ZM476.083 109.743C476.782 108.981 477.528 108.664 478.425 108.664V104.664C476.345 104.664 474.548 105.499 473.134 107.041L476.083 109.743ZM475.025 112.352C475.025 111.328 475.356 110.504 476.054 109.774L473.163 107.01C471.749 108.488 471.025 110.304 471.025 112.352H475.025ZM475.72 115.238C475.3 114.578 475.025 113.656 475.025 112.352H471.025C471.025 114.216 471.421 115.934 472.345 117.386L475.72 115.238ZM478.656 117.577C477.015 116.69 476.13 115.882 475.72 115.238L472.345 117.386C473.28 118.854 474.843 120.062 476.754 121.095L478.656 117.577ZM480.065 118.392C479.391 118.006 478.953 117.752 478.734 117.621L476.676 121.051C476.937 121.208 477.41 121.482 478.08 121.864L480.065 118.392ZM482.391 119.628C481.53 119.122 480.706 118.683 479.918 118.316L478.227 121.94C478.88 122.245 479.591 122.622 480.363 123.076L482.391 119.628ZM484.485 120.743C483.856 120.404 483.131 120.018 482.312 119.584L480.441 123.12C481.254 123.55 481.97 123.932 482.588 124.265L484.485 120.743ZM485.87 121.488C485.598 121.306 485.055 121.027 484.431 120.715L482.642 124.293C482.972 124.458 483.226 124.588 483.411 124.686C483.622 124.797 483.675 124.832 483.651 124.816L485.87 121.488ZM492.082 126.965C490.495 124.722 488.361 122.876 485.738 121.407L483.783 124.897C485.96 126.116 487.618 127.582 488.816 129.275L492.082 126.965ZM494.537 135.248C494.537 132.078 493.753 129.27 492.068 126.946L488.829 129.294C489.929 130.81 490.537 132.754 490.537 135.248H494.537ZM492.318 143.676C493.806 141.14 494.537 138.315 494.537 135.248H490.537C490.537 137.653 489.971 139.772 488.868 141.652L492.318 143.676ZM486.51 149.563C488.958 148.094 490.905 146.121 492.324 143.665L488.861 141.663C487.785 143.527 486.324 145.01 484.452 146.133L486.51 149.563ZM478.425 151.72C481.354 151.72 484.06 151.01 486.498 149.57L484.463 146.126C482.677 147.182 480.68 147.72 478.425 147.72V151.72ZM40.7785 98.7891C41.1182 98.6248 41.7192 98.4897 42.3554 98.7935C42.8932 99.0503 43.1142 99.4659 43.1724 99.5863L39.5715 101.328C39.6994 101.592 40.0014 102.102 40.6316 102.403C41.3603 102.751 42.0651 102.61 42.5201 102.39L40.7785 98.7891ZM45.6614 96.4275L40.7785 98.7891L42.5201 102.39L47.403 100.028L45.6614 96.4275ZM44.8 98.7991C44.7418 98.6787 44.5532 98.2475 44.6858 97.6665C44.8426 96.9791 45.3216 96.5918 45.6614 96.4275L47.4029 100.028C47.8579 99.8084 48.406 99.3433 48.5856 98.556C48.7409 97.8751 48.5289 97.3219 48.401 97.0575L44.8 98.7991ZM32.8458 74.1927L44.8016 98.8023L48.3995 97.0543L36.4437 72.4448L32.8458 74.1927ZM39.4347 68.7805L33.774 71.5182L35.5156 75.1192L41.1762 72.3814L39.4347 68.7805ZM38.5733 71.1521C38.5151 71.0317 38.3265 70.6004 38.459 70.0194C38.6158 69.332 39.0949 68.9448 39.4346 68.7805L41.1763 72.3814C41.6312 72.1613 42.1793 71.6963 42.3589 70.909C42.5142 70.2281 42.3021 69.6749 42.1743 69.4105L38.5733 71.1521ZM36.2326 66.3124L38.5733 71.1521L42.1743 69.4105L39.8336 64.5708L36.2326 66.3124ZM38.6042 67.1737C38.4839 67.2319 38.0526 67.4205 37.4716 67.288C36.7842 67.1312 36.3969 66.6522 36.2326 66.3124L39.8336 64.5708C39.6135 64.1158 39.1484 63.5678 38.3612 63.3882C37.6803 63.2329 37.127 63.4449 36.8626 63.5728L38.6042 67.1737ZM22.1839 75.1154L38.6042 67.1737L36.8626 63.5728L20.4423 71.5145L22.1839 75.1154ZM23.0243 72.7006C23.1307 72.9205 23.3142 73.4433 23.0933 74.0782C22.8723 74.7131 22.4038 75.0091 22.1838 75.1155L20.4424 71.5144C20.1072 71.6765 19.5662 72.0431 19.3155 72.7635C19.0648 73.4839 19.2613 74.107 19.4234 74.4422L23.0243 72.7006ZM25.3295 77.5773L23.032 72.7167L19.4157 74.4261L21.7132 79.2867L25.3295 77.5773ZM22.9711 76.7431C23.1767 76.6436 23.687 76.4618 24.3112 76.679C24.9354 76.8963 25.2224 77.3556 25.3218 77.5611L21.7209 79.3028C21.89 79.6523 22.2653 80.2023 22.9963 80.4567C23.7274 80.7112 24.3631 80.5131 24.7127 80.344L22.9711 76.7431ZM28.5886 74.0261L22.9711 76.7431L24.7127 80.344L30.3302 77.6271L28.5886 74.0261ZM43.1724 99.5863L31.2599 74.9558L27.6589 76.6974L39.5715 101.328L43.1724 99.5863ZM53.9316 92.4276C54.2714 92.2632 54.8724 92.1282 55.5086 92.432C56.0464 92.6888 56.2673 93.1044 56.3255 93.2248L52.7246 94.9664C52.8525 95.2308 53.1545 95.7405 53.7847 96.0415C54.5133 96.3895 55.2182 96.2486 55.6732 96.0285L53.9316 92.4276ZM58.8145 90.066L53.9316 92.4276L55.6732 96.0285L60.5561 93.6669L58.8145 90.066ZM57.9532 92.4376C57.895 92.3173 57.7064 91.886 57.8389 91.305C57.9957 90.6176 58.4747 90.2303 58.8145 90.066L60.5561 93.6669C61.0111 93.4468 61.5592 92.9818 61.7387 92.1945C61.894 91.5136 61.682 90.9604 61.5541 90.696L57.9532 92.4376ZM51.8088 79.7334L57.9532 92.4376L61.5541 90.696L55.4098 77.9918L51.8088 79.7334ZM59.2202 73.9273L52.7385 77.0622L54.4801 80.6631L60.9618 77.5282L59.2202 73.9273ZM68.0358 87.5611L61.8915 74.857L58.2905 76.5986L64.4349 89.3027L68.0358 87.5611ZM65.6851 86.743C65.8906 86.6436 66.4009 86.4617 67.0251 86.679C67.6494 86.8962 67.9365 87.3556 68.0359 87.5611L64.4349 89.3027C64.6039 89.6522 64.9793 90.2023 65.7104 90.4567C66.4414 90.7111 67.0772 90.513 67.4267 90.3439L65.6851 86.743ZM70.5248 84.4023L65.6851 86.743L67.4267 90.3439L72.2664 88.0032L70.5248 84.4023ZM69.7067 86.753C69.6073 86.5475 69.4254 86.0372 69.6426 85.413C69.8599 84.7888 70.3193 84.5017 70.5248 84.4023L72.2664 88.0032C72.616 87.8342 73.166 87.4588 73.4204 86.7277C73.6748 85.9967 73.4767 85.3609 73.3076 85.0114L69.7067 86.753ZM55.265 57.1138L69.7092 86.7582L73.3051 85.0062L58.8609 55.3617L55.265 57.1138ZM57.6341 57.9699C57.5138 58.0281 57.0825 58.2167 56.5015 58.0842C55.8141 57.9274 55.4268 57.4483 55.2625 57.1086L58.8634 55.367C58.6434 54.912 58.1783 54.3639 57.391 54.1844C56.7102 54.029 56.1569 54.2411 55.8925 54.369L57.6341 57.9699ZM52.8377 60.2897L57.6341 57.9699L55.8925 54.369L51.0961 56.6888L52.8377 60.2897ZM53.6781 57.8749C53.7844 58.0948 53.968 58.6176 53.747 59.2525C53.526 59.8874 53.0576 60.1834 52.8377 60.2897L51.096 56.6888C50.7609 56.8509 50.22 57.2174 49.9692 57.9378C49.7185 58.6582 49.915 59.2813 50.0771 59.6165L53.6781 57.8749ZM59.3627 69.6284L53.6781 57.8749L50.0771 59.6165L55.7617 71.37L59.3627 69.6284ZM51.9513 75.4345L58.433 72.2997L56.6914 68.6987L50.2097 71.8336L51.9513 75.4345ZM43.6355 62.7238L49.2768 74.4982L52.8841 72.7699L47.2428 60.9955L43.6355 62.7238ZM46.0103 63.5918C45.8899 63.65 45.4586 63.8386 44.8776 63.7061C44.1902 63.5493 43.803 63.0702 43.6386 62.7305L47.2396 60.9889C47.0195 60.5339 46.5545 59.9858 45.7672 59.8062C45.0863 59.6509 44.5331 59.863 44.2687 59.9908L46.0103 63.5918ZM41.2138 65.9116L46.0103 63.5918L44.2687 59.9908L39.4722 62.3107L41.2138 65.9116ZM42.011 63.5177C42.1753 63.8574 42.3104 64.4584 42.0066 65.0947C41.7498 65.6324 41.3342 65.8534 41.2138 65.9116L39.4722 62.3107C39.2078 62.4385 38.6981 62.7406 38.3971 63.3708C38.0491 64.0994 38.19 64.8043 38.4101 65.2593L42.011 63.5177ZM56.3268 93.2274L42.0123 63.5203L38.4088 65.2567L52.7233 94.9638L56.3268 93.2274ZM75.4909 84.3501L66.4914 52.0723L62.6384 53.1466L71.6379 85.4243L75.4909 84.3501ZM72.9709 83.2192C73.3107 83.0549 73.9117 82.9197 74.5479 83.2236C75.0857 83.4804 75.3067 83.8961 75.3649 84.0164L71.7639 85.758C71.8918 86.0224 72.1939 86.5321 72.8241 86.8331C73.5527 87.1811 74.2576 87.0402 74.7126 86.8201L72.9709 83.2192ZM77.7674 80.8994L72.971 83.2192L74.7126 86.8201L79.509 84.5003L77.7674 80.8994ZM76.8135 82.8801C76.7767 82.7378 76.7069 82.371 76.8637 81.9205C77.0429 81.4056 77.4159 81.0694 77.7674 80.8994L79.509 84.5003C79.9758 84.2746 80.425 83.8571 80.6414 83.2353C80.8354 82.6779 80.7637 82.1787 80.6861 81.8785L76.8135 82.8801ZM75.7893 79.5878L76.8397 82.9721L80.6599 81.7865L79.6096 78.4022L75.7893 79.5878ZM82.7054 74.3522L76.8287 77.1945L78.5703 80.7954L84.447 77.9532L82.7054 74.3522ZM87.2278 77.9479L85.2268 75.0233L81.9256 77.282L83.9266 80.2066L87.2278 77.9479ZM85.0269 77.3883C85.3785 77.2183 85.8736 77.1346 86.3885 77.3138C86.839 77.4706 87.0832 77.7531 87.172 77.8703L83.9824 80.2842C84.1696 80.5315 84.5165 80.8976 85.0738 81.0916C85.6956 81.308 86.3018 81.215 86.7686 80.9892L85.0269 77.3883ZM89.8234 75.0685L85.0269 77.3883L86.7685 80.9893L91.565 78.6694L89.8234 75.0685ZM89.1678 77.7763C89.07 77.6471 88.688 77.0923 88.8694 76.297C89.0546 75.4853 89.6582 75.1484 89.8234 75.0685L91.565 78.6694C91.8743 78.5199 92.5613 78.0982 92.7692 77.1866C92.9734 76.2915 92.5536 75.6217 92.3573 75.3623L89.1678 77.7763ZM69.6372 50.5354L89.1371 77.7346L92.388 75.404L72.8881 48.2048L69.6372 50.5354ZM71.8338 51.1022C71.5869 51.2216 71.1735 51.3396 70.6796 51.227C70.1934 51.1161 69.8841 50.8397 69.7271 50.6516L72.7982 48.0887C72.5566 47.7992 72.1551 47.4608 71.5691 47.3271C70.9752 47.1917 70.4543 47.3262 70.0922 47.5013L71.8338 51.1022ZM65.5681 54.1326L71.8338 51.1022L70.0922 47.5013L63.8265 50.5317L65.5681 54.1326ZM66.5228 52.2013C66.5728 52.4412 66.5974 52.8553 66.3825 53.3052C66.1642 53.7624 65.815 54.0132 65.5681 54.1326L63.8266 50.5317C63.4644 50.7068 63.0356 51.0317 62.7731 51.5813C62.514 52.1237 62.53 52.6486 62.607 53.0176L66.5228 52.2013ZM77.1983 75.7539L81.3466 73.7475L79.605 70.1466L75.4567 72.1529L77.1983 75.7539ZM70.4838 61.4456L74.412 74.5285L78.243 73.3782L74.3148 60.2954L70.4838 61.4456ZM69.9153 59.8603L70.5157 61.5427L74.283 60.1983L73.6825 58.5159L69.9153 59.8603ZM74.4693 59.5137L73.4368 58.0403L70.161 60.3359L71.1936 61.8093L74.4693 59.5137ZM82.1317 70.8254L74.4873 59.5399L71.1755 61.7831L78.8199 73.0687L82.1317 70.8254ZM94.9615 72.5835C95.3013 72.4191 95.9023 72.284 96.5385 72.5879C97.0762 72.8447 97.2972 73.2603 97.3554 73.3807L93.7545 75.1223C93.8824 75.3866 94.1844 75.8963 94.8146 76.1973C95.5432 76.5454 96.2481 76.4045 96.7031 76.1844L94.9615 72.5835ZM99.8444 70.2218L94.9615 72.5835L96.7031 76.1844L101.586 73.8228L99.8444 70.2218ZM98.9831 72.5935C98.9248 72.4731 98.7363 72.0418 98.8688 71.4608C99.0256 70.7734 99.5046 70.3862 99.8443 70.2219L101.586 73.8228C102.041 73.6027 102.589 73.1377 102.769 72.3504C102.924 71.6695 102.712 71.1163 102.584 70.8519L98.9831 72.5935ZM87.0288 47.987L98.9846 72.5966L102.582 70.8487L90.6267 46.2391L87.0288 47.987ZM93.6177 42.5748L87.957 45.3126L89.6986 48.9135L95.3593 46.1757L93.6177 42.5748ZM92.7563 44.9464C92.6981 44.8261 92.5095 44.3948 92.6421 43.8138C92.7989 43.1264 93.278 42.7391 93.6177 42.5748L95.3592 46.1758C95.8142 45.9557 96.3623 45.4907 96.5419 44.7033C96.6972 44.0224 96.4852 43.4692 96.3573 43.2048L92.7563 44.9464ZM90.4156 40.1068L92.7563 44.9464L96.3573 43.2048L94.0166 38.3651L90.4156 40.1068ZM92.7872 40.9681C92.6669 41.0263 92.2356 41.2149 91.6546 41.0824C90.9672 40.9255 90.5799 40.4465 90.4156 40.1067L94.0166 38.3652C93.7966 37.9102 93.3315 37.3621 92.5442 37.1825C91.8633 37.0272 91.3101 37.2393 91.0457 37.3671L92.7872 40.9681ZM76.3669 48.9098L92.7873 40.9681L91.0457 37.3671L74.6253 45.3088L76.3669 48.9098ZM77.2073 46.4949C77.3137 46.7148 77.4972 47.2377 77.2763 47.8726C77.0553 48.5075 76.5868 48.8034 76.3669 48.9098L74.6253 45.3088C74.2902 45.4709 73.7492 45.8374 73.4985 46.5578C73.2478 47.2782 73.4443 47.9014 73.6064 48.2366L77.2073 46.4949ZM79.5126 51.3716L77.2151 46.5111L73.5987 48.2204L75.8962 53.081L79.5126 51.3716ZM77.1541 50.5374C77.3596 50.438 77.8699 50.2561 78.4941 50.4734C79.1184 50.6906 79.4055 51.15 79.5049 51.3555L75.9039 53.0971C76.073 53.4467 76.4483 53.9967 77.1794 54.2511C77.9105 54.5055 78.5462 54.3074 78.8957 54.1384L77.1541 50.5374ZM82.7716 47.8205L77.1541 50.5374L78.8957 54.1383L84.5132 51.4215L82.7716 47.8205ZM97.3554 73.3807L85.4429 48.7502L81.8419 50.4918L93.7545 75.1223L97.3554 73.3807Z" fill="#2C47A4" mask="url(#path-3-inside-2)"/>
</svg>
